<mxfile host="app.diagrams.net" modified="2022-07-20T12:18:56.576Z" agent="5.0 (X11)" etag="QtQTt7GpVTgIxE71ImOm" version="20.1.3" type="github">
  <diagram id="PZqTns7GKYaaIj85-Zqi" name="Page-1">
    <mxGraphModel dx="1102" dy="613" grid="1" gridSize="10" guides="1" tooltips="1" connect="1" arrows="1" fold="1" page="1" pageScale="1" pageWidth="850" pageHeight="1100" math="0" shadow="0">
      <root>
        <mxCell id="0" />
        <mxCell id="1" parent="0" />
        <mxCell id="q82MvRItSnuRYg2Ndtge-3" value="Original" style="shape=image;verticalLabelPosition=bottom;labelBackgroundColor=default;verticalAlign=top;imageAspect=0;image=data:image/png,iVBORw0KGgoAAAANSUhEUgAAASIAAAC7CAIAAABOwgTeAAAACXBIWXMAAA7EAAAOxAGVKw4bAAAgAElEQVR4nO292a98V3bft6ezzzzUdKff/OP4I7slsmer1aITRW630YYSBIHh2BCih7wF/ZSHvOgPCBIgApIAhp4CQwictmHLieQktqU02y21pubQzSab82+6Y41nns/OwyGLxaq6datOneGSup8n/uoW6+5Td6+91t57re+CjDFwxRVXVMCtW7fy/0DNjuOKK/4mcGVmV1xROegqaLziiqpBaZo2PYYrrviccxU0XnFF5VyZ2RVXVM6VmV1xReVcmdkVV1TOlZldcUXlXJnZFVdUTmlmNraDKL68dwNRnD46ta8uCT+vDCa+68dNj+JcyjGzkRX8T//7K//mzz70w6SUDyyXNGP/4bXD/+Wfv/bzD4ZNj2U5thv+2z+///1///bZ2Gt6LPN4Qfwnf/3wj/70w0u7Trl+/D9//9U/ePk9N7iklkZK+ZR/9m/ffvPD4YMTOwjT33zpCZEv52NLgTH203f7/+JP3nWD+J/8y5/+j9/7NeEyDQ8A8IOfPPrf/uhN148JRvtdpauLCMGmB/UJ94+tP3j5/aO+CyH4wt3uf/uPviRLtOlBfYr/49+//bP3Bw9PbV3hv/2NWxzBTY9onhK82cMT+//9iwe/9fee+62/d+/f/eWD/+fH97f/zLJgjB2eOX/w8vvP3Gr9d7/11ZEV/NGffZhml2hJttzwn/7fb73wdO+//29+9W9/+fpfvnlyqSKCNM3eezTRFfo/fO9b3/sHL777aPzqO/2mB/UpHpxY/+cPP/hH3773D//Os//65ff/+q3Tpke0hG3NLE7Sf/3D9w+68q9/7ea3Xrj27W/c+uFrh9mlmcdJyv6/nzyK4uQ3f+2Je7fbv/lrT7z8yuP7R+blCX7e/GAUJ9k/+E+evnvNeP5u5/6RdaniRi9Mfvre4Pm73YOe8q0Xrt3e1974YHB51qkgTP7FH797c0/9zq/c/tVfPvjqc7v/7N+9k6ZZ0+OaZ1sz++DQfP3d/j/+u8/KAkc5fO92xw+S09FlmShJmv38g+GX7+3e2tMghN/+xm1Npj96/fCSnNZkjL3xwXC/I+91ZADAvdttXaF/+vpR0+P6hNOhNzT9Z262eA4DAL72/N79Y2tiB02P6yNef6//i/uj/+q7z0sCJwncN76wb7vR0cBtelzzbGVmSZr9+c9Pru8oX3t+P3/l9oGmStxf/Py4jLGVwNgKxk5450DPdzuqzH3zlw/ef2wOrUsxUcZW8OGR+bXn9yCEAIC2Jrz49M4PXnl8eQ7NXn710W5bevKGkf/zhWd6jp88PLGbHVVOmmU/eevszjX9l5/q5a/cuaZLAvmLn580O7BFtjIzy42OzpwvP7vLkY8+RxG52/vaj392WczsjQ+GIiU3d9X8nwjCm7uq48fjy2FmD0/skRV85dmd/J8Qwl/55YM4SX/46uNmB5YTxumPXjv6whNdReTyVwxF6Bniw1P7MuwLTDs6G3vP3Wnjj0+MFJG7c6D95efMzMZ2MLKCJ67p01cghPfudN66P7LccOuxlcBr7/R7LaljiPk/IYSazFMOD82w8e1ZlrEPj8y2JhiaMH1xvyM/d6fz8iuPGx8eAODPf3acMfalZ3dyZwsAECh+7k77/ceTy/D37U880wmfvG5MX4EQPn+384sHI9uLGhzYIsXNjDE2tkIAgK7ys6/fu90CAPz8/eZvqKI4/cX94bO3Wgh+cj4ui1xHE06GTpw0vFG2vejBsfX0TUOgnzqAvne7/ejUDi7BeeMbHwy6upjvG3M4gp64bhwP3LHV/Do1MAOMUUsVZl98/m4HMPDWh6OmRrWU4maWMTaY+LLIzd2S7bblG7vqq+82f+z74ZFpefG9O+3ZFxWRu7ajPDyxGz8374/945H3zM025T5lZk/fbEVJ9vC04f0PY+zt++Mnb3xqkYIQ7rYlQtDDU7tZK0szdjryWgovCp+afgddZa8rv34Jpt8sxc0sjNKjgbPTkuYWY4Tg15/be/fR2G/6Sv5n7w1lntw50Gdf5Aja60gDM2jWzBhjA9OHDOy0pdl5DAC4ta9BCB80fcxguVF/4j9xXZ97va0JOy3pg0Oz2WP9MEqOB+5BTxHpp8wMY/TlZ3ffeTi+JIfJOcXNLIjSwzNnryMJdD6p4m99cd90osYnyuvv9p+53Z5bBSCEPUPygtj2mlwFkpSdDl1DEzR5PqNCoPj6jvLgxGpkYFMendlxks3ufHIEituacDxwmz0F8cPkZOhe21F4Op/z8fXndsd2eHjmNDKwpRQ3Mz9MbC/utaTFzKAnrhscQR8cmduNbStMJ3x0Zn/pmU+271O6LVGV6P1Gh5ek2fHQa2u8/PEh3hQI4ZM3jEcndrPXrA+PbYLhzV1l7nUI4U5LHFp+mjU5PD9MgjDp6sLi9HvubidjrNnpN0dxMxvbQZykvY8P8T71oQhe6yknA6/BXfKHR2aSZi883Vv8UUcTeob49oNx/aOaEifZ2djr6IKwsBgDAO7dbptuNLabPM27f2zdOdDJsvzAXktyvMgLmoy6R2aAEWxpwuKPKIdv7WkPTqzGD2mmFDez+0eWJtPuMjMDAOy15ZHlR3FjC95R31UlbqclLf6Icvigp9xvNCpLksxyo7YmLjpbAMCT1/UgTPoTv/6B5URxejRwprfSc/QMkSP4UaOHNO8/nrR1ob3MzAAA13ry0AwanH5zFDez9w/NtiYaCr/0p9d2FNuLG7y+GEz8vY5yXqr7zT11ZAam05i78MLYD5K2tvzba2uiQPGgueTGkRXYbvTUzeVm1jVEkSfvH05qHtUs7x2aOy1JkeZD7pxrPcVpdPrNUdzMHp3aBz0Z4+Xz+FpPtr3IbOgSM0mzgekfdOXz3nB9RyUYvfuosbjxsO/wFLe15bEAxrBriP2J31TYczryvCB5+kZr6U8lgbR18cOjJsOBhyf2fldGy2IBAMBBT2lw+i1S0MwcPxpM/Bu76tKYBwDQ1gTG2KSh3YXtRrYX3/g4x2qRri4IFDc4Ue4fmYrEdfTlMQ9G6PqOejb2g6iZU+njoSuL3OIpaA6E8MaO8mFzhQ6uH1luuNuWzpt+LZUHAJjOZ9ybPTi2CEa77SU7nxzKYYEnptNMroDpRo4f3Vg4JZvCU9zWhQYPzR+eOC1VkITlBaYYwVt76mDiNxL2ZBk7G3m9lojPry69tqP0x43pAjw8tTmCl55/5FAOCzxucFMwR0Eze3hiUw6dtxgDACiHFZGb2GHWhJlZTpgkWUdfHpIBACCE+135wXFjZva47+x35PMWYwjBTltyvMh2GzAzP0wGE/9aT0Ho3OlxfUcBADw6a+YU5MGxTbn5NKtZKIdlgTOd8DKkOIPiZnZqqxJVxHOL1XkOd3RxZIVhE2GP5UaUwzy3qlh9vysf9t1GMhv9MBlO/P3zt44QQkWiDACnCXdhOuHYCm/uqSu82UFXwQjebyjqfnhqKSJVFq4cp1AOd3RhZIaNZ67mFA4a7b2OvEKygnJ4tyUNJl79OU2MMdMJRZ4QsurpDrpKnGT9Jk7zHpxYAIKD3rlmBgAQKEYIOn5cf9Rte5Efxrtt6RxfCwAAssjtd+WmroDvH9n7nSV5EVN4DvVa0sD0L0nKVREzyxh7dGrtd1bNEoJhS+NtLw7Cup8zSrKxHbY0geDVZiYDABqptP3w0KQE77ZXfYE8xapIx1ZQf+qg68cYI4GS82LanLvX9AfHDVwBZ4w9PLX2u+duvAEABKO2JlhuGH52zczxookT7XXPPf8AH1V20ThJ/ahubxaEydAMeoZIzrlsyOkaIiXouAkze//QbOu8es6dT45AiabQwcRP6k25Yoy5QUIwWswVnOPuNWMw8esPa20vMp1o/6Lpp0o0TrLPsDc7GXoAgNXeDACgSDRjwK097AmiZGwHHV3AK70Z5fBeVz4eNuPNcm2SFe+hBGkyHZpBmtb67WWMmW4o8mT1zhYA8MQ1PUqyk9q/wJOBCwDY66zyZgAAReLSjAW1r/JLKWJmuQdY7bUBAJpMZYE7G3s1hxV+mAZRoiv8hVqHdw60o37dedxBlBwP3dv78wUmcyAEDYU33bBmbxbH2dgMDYXnFwov5ri1pyYpOxvXnRF22HcAuGBnCwDQJCrypMGEtVkKmpkm0/PuLqcoEqcr9Kjv1ry7CKIkTZkicqvdBQDg1p42mNS9Sx5bYZxm1y6aJRBCTeFdP67bzJJsZAWGyi/NaZ5FFDhV5EZm3fP4ZOgZKq9eJMmqSFST6VH/UqhcFQsa3RUJFlMkntMV/nTk1nl1lh8zIgSVNZRxb+1pUZKN65VDG1o+y8CKm/0pukyDKKl5FYiSdOIEmkK5lee0OV1DHJp1ixcdD9yba0w/WSC6zNcfrSxlYzPLMnY69m7uXfycCMGOJoytWq8Is4ydDj1NpqsPGHJu7atxnI7qVbkamQFCoLusdGAOTaYE45rncZxkYZRqEr0wFgAA9FriyArq3HunWXY68m7taRe+E2PU1oVLoi27sZk5fmQ64e39i58TANDSBMuNshrr/zLGjgaurvDreLOuLhKCRvXO48EkaGnChQcMAABd4UWeHNa7HkdxFkSpetGOIGe3LVluVGfipeVGthfdOVhr+nV1of6t41I2NrORGcRxdmsNbwYA0BUaJWmd9X9Zxgamb6g8XSPmyXWRRlatmW8jy99bI2IEAGgyFXlS882e68cZYysSLGbZ7ch+mNSZeDk0gzjJbu2vNf0MlffDxGtakwYUMTMriJLs5hpeGwCgyTwl+HRU34qSMeB4sS7z68Q8AICuIdS5N2OMjcxg96K7kBzK4ZbKn9WrlN6f+BJPLjxgyNlrS0GY1pl4OTT9KE5v7q47/TCCl0FqfmMzG5iByOM1/wyaTCmHTob1hT1Zxmwv0pV1OwPttiXTCWu7XfHDxAniC68cp3R0sebdxcnIlQTuvHLJOTq6ECepVauZBapE12ydpcmUI+gyaO9sbGbDib8i830OTaYCrTXscf0oilP9nJruRQ66iuVGtaUyWG4UhOmFdz5Tei2x5kSQ06GnSlQW1jIzymFRIHWa2WDin6eLsYgmU8rhmje3S9nMzLKMDa1gfTPjCNIVvk6vfTr2KcEX3ulN2WlLjh/Xtnu03MgPk/W9WVcX4iSrU/F/aPqGyq9OoJmCMZIErjYzS7NsbIdd49z6lzk4ggyFXoYGMZuZmR8mthvtttc1Mwhh1xDq3F2cDF3KbWBmmkzjOPPrMjPbizLGVtQjztE1RIJRnevx2ArP07FZhCAoCyR/qEpHleMHievH63szCGHXkI4HnzVv5vqxFyZL5aLOo6OLtXqzoUc5tL6ZcQQjDGur1rHdSOIJOb9cco6uIWKMDs9qWo/TNJs4wXlCQIvkd1O2F8W1aEh5QeIHSXftYAoA0GtJx4PP2hFIHl/1Wps8pyG6fuzUdeZ7PHRbmrB+92GOIIJgPWe+jDHTjSSBwLW/dZEnhkIf11WkfNh3MEbrbwoIhl1dNJ0orOUMyfFjL4w3mn47LXHihI2f6W9mZl4QJ2m2vq8AAHQMAdZ4qNofeyukExbhCOII8oI6yggyxmw3UiR6nh7TIhDC/a5SW9D4+NShBK0fNGKEWppge1E9ZV1uEKcbTr9crnfQdALxhkFjEHME0TUyGKZ0dBFBWM/2jDF2OvY656iyLYXDSBap5UZJ9fUmYZRaXtTWhPXNDACw15GOB049CU2PzmzK4blOWiuAEKgSjeO0HjPz/JgjeKPpl7u+ftO5IBt6Mz/mObS6KnmOlioQDE9rufzxgtj1kvVPogAAhCBNphMnqkE0Ij9AamsCPL+6fpGdlmh7cT27x8OB01KFdRJociCEedut2rwZz+F1cpqndHQRAtB4OcwGI2aMOX5MN3xOjqBeSzyp5VD1bOQDCDYyM44gXaYTO0zSyidKECaWG3V0YRMrA72WlDJWj57+8cDtGsKaCTQ5Ik8YAGGUVu1vGWOOF1OKObyBN6Mc7rbqvuJfZAODSTNme7EmrVUiMct+R6nHm52NPQRhe5OTKIygIlHbq0MCyY/SJM3WKYSbZaclsQzUkN/MGDsdeeuff+QIPOY5XMPVWZxkthdpMl2tpLTIQVf+LAWNcZJZbqSr/EZBIwBgryP1x34N5TCnY49g2Fo7BQR8JNXGhXFWg5nlfW7XTBSa0tYFAEAN1TpRnJp2uKmZiZSoMh1M/KqvzqI4tdxIV/hNV/mDrjxoTiY9Z4MRJ0lmF3rOvY7sBnXsLs5GXksTNtoiAwAkgYvitOqEJsaYHyYQgMWui6uReCKLZFR9fvPECTMGupuc0wIABJ5ouZlVvExFSWa5kaFsvMrvdxXbi5ptzrqZN/vIa2/4nAc9OUlZDRlDp0NvhZTveSgiFyeVn5VlDJhOyFMibujNIIS9ljSsXgsgrx9dP8cih+ewKtGRWXlxZxinrh9rMl0tWLbI9Z4SJdmkUaHvTcwszZI0k4XNthYAgL2OnKZZ1W0r8tP8vc4GGSo5skg4gqseXpplEztUJe5CjY1FeoY4NivvRpDHpRvdOgIAEIKKyNl+XEPQGCeZtPn02+/JSZKZjfZk3CxoTFK26WIMAOhoAkZwXPFykjfp3Vs7K3eKLHAST6q+wcxSNnFCWeQu1D9cpGeIk+rl4EdWKPFksUnvhSgi5/pR1XufKE4zVmT67RhSVtdR7XlsYGZRkmaMiec0MVkBxshQ+ardxdgO0zQr4M0kkRMFMphUG9OmGTOdSBa5deQJ5thpS0GUVt1+ZWwFu51zWxmtQJY4x08qXQUYY2GUZhk7r4fOCijFssh9ZoJG240IRtLmywkAoGtIVRcpj8wgzdiK/g/nIVIiC9yg4s1PmmWOHysSXaH8fh57HSk/Z6tiYFOG5qruGStQRBonaaV5gwwA0404UnD6tVR+XK8UxRwbmNnQDGSBK+C1AQBtTbDcqNLdxcgOMsZ6xsbeDEKgK/yk4lUgTZkfJptemuXstKUoTq0q068zxsZWWCAWAAAoIscRVKkCF8vYyApkkSsQTAEADEWYOLUqcM2xgZkNJr4skmLP2dF5L4grPc0bW4Eu001P8wEAEEJdoVW3nMuFpteUspmjpQhZxiqV3PCDxI+S1d0zzkMWOUpwpdnhGdtuldcF10+i5powbeTNfFngNr32yekakh+mlVZP5l1giv2/hsqbblzp7iKK0yhOCxwwAAAwhrLIWV6FUZnlRnGc7hUyM0XkKIfOJhWaGWNsbAWSWHD6tTXeDxOvod6iYCMzG9mBuvmlWU7PEP0wcSsL3/M+1+tXcMxhKHyaVnu1MrICjuA1pWzmQBAqErWqbFhuuWEYZ6vbrJwHT7EscJUWYWSMWW6ky0V2tgCAri4GYVKnkOEcG9jMxInWVMlcpKMLYVThcyZp5nhRYTPTFZ5gVGlzk/7E5zlcLGiEECoiZ1e5ubW9OM1WtRFeAYSwpQmV3ogwBhwv2qjSbJa2JvhRk4KNG5iZ5YSFnzMPqaszMy9IgijtFZolAABD4bmKe50NzICnuFjQiBBoqdSpsm2F7UYCTzZNo5tiqHylR7VZxmy/+CoviRwEwGsu32rdr9WPEi9ItPXkGRfBGFGC/cqWE9ePwzjtbFICM0su6FdpGcFw7IkUS3xBb9bSBC+Iq5PRtrxILXQKmtPWhMGkwqM814/SlBVe5TmMOII/A0HjycDlCNLWlhmdAyPIccit7DkdPw6jdNN8vCn5BfrpsEozswJDFYptLRCEHV10/bgiyQ3GmOVGxfaNOW1NqPRm73TkUQ4XXuXJx1IU5Y5qfdY2s6FHCCruzRDkKXErk9xw/TjL2PoqqIt0NKHSI+mxHRYeHoS5HHxakTdLUuZ4kSYX//bamgAhrG571p/4lKB12o8shWDIU1zd9LuQdc3sdOQSXPw5MUKKyLl+XFFZl+PHPEWFtxYAgJZWrZ7k2AqMtTU2FpEELk84KnFIU4IocYO48AESAKCl8ahSMxv7hc9pAQAc/mj61dyTccq687I/9iWeFMgu/+jXYKjL1Paqktxw/VigXLGQLKetCUPTT6v5M/hh7IWJoRZcpCCElEMIwYq8mR8mXpAUvnUEALRUAUJQ3SnIYOIr4sXtsM8jV3yxvTiqRU9ykbWDxpHX0TdTiZgFI6irvOVGVfSeZIw5fiTyGK8tM7pI1xAyBirK4+6PfQShoRSfx5TDGMMgSqoIe/Kr284WZvZx85oKg0ZDLT79CEaawltuFCW1tj6dsrY3G3nbBBUYQVWirh9XkfCSZcz1Y1nk8FbeTASVaQGcjT2MYGuLoJESTAmuKI3GD5IkzWSxSILFlF5Lqs6bDc1gG2dLMNIk6vpxPerIi6xlZoyxs4m/zXNCCCWBxElWhTeLksz1E0Pl8YZ1tbPki0hFyjb9sY8x2uaEhhKkiJzpRmkFGWFBlCCMKLeVme20pEE1yjZZxkamv80iBSGQBRLFyaX2Zl6QuNsFFQAAkZI0y+IKnjNOUsePdYXfxpvpCkUIVubNfEnYWJ5gFo5DisSZbliFmflhShBcX55xKTstcWyHVZwxeEEcxOk2B0gQQoEnaQYu9d4sn3ztDcvX5xB4kqasiueM4sz145bKb7M3Ixi1daEiyY3TkdfTxW1OaCjBqsRP7DArWx2ZMeaHMUKbiUkvstuWompaCo6sAEK4zZ4FACDyJE0rWeXXYa15Of5IJaLg5W9Ovpb7Yfmb+ChJwygv5Sr+IRDCXUOqqA/12djrtLaaJRxBikgsJ0rLVpDKMub6iSQUz7TK2WlJacqqkNwYmgGCcBtvBgAQeJIxFoSVy7YuZa1vdmgFAIBtgmMAgMBjgSemE5b+mHGcAQB5SgqfROXstMWhVb6gX5ax4cTv6UWS36dACCWR88O49KAxTjPLjfJilm0+p9cS06ySKoexFSAIjC12tgAAkSciT0y3/Om3DusGjRKPpfUapZ6HSIkkkLFdvkJTlKQAssKXKlN227LllN+zwgtiL9xM2X8pEk+CKC3dzJKUWW6oSnT9blVLMVQBQViF4svQCiSxYEHnFJFiSeCqmH7rsJ6ZmUGvLW2ztQAAiAKRBW5kBeXOE8ZYfnpZQDFqjt22FMap65e8uxhZQZax7ubqCXNIAheESflmlmSWG6nStt6M+6jpR/lmNjKDnVYRLaBZRJ5IAhmXPf3WZF1vtlGHzqXwHJYEbmKXn8dtezHl8PZmttMWkzQrfRM/sUPGNmugsRRJIFGSRXHJV2dJmnlBIoncRu2glmKoQhVaDyMr6G23swUA8JRIPBlbzSiCXGxmjLFSzAxCqOZKY6U+Z8bAxA4VgQrbXfsAAHZbcr60lzKwKWM7ZIBt1EBjKSJPeA6PzJLncZJmcZIWkBldpKXyplNy7Wk+/QooKc2B8p4k1cu2Lv/tF74jF1XeWbut+wryRJByH5MxNrYDWSTbe7O2zudCZaUMbMrEDkWeE7ceniRwlOLSMy2SJIuSrJgw2xwtjbe9ki/Q/TDxwqRwidMsmlz+9FuTi83McqIkzYqJscyhytTxo6zUI+ksY2MrkKUiar5zcATLArHKDnvGdtDbsGnYUiSBCBwuPQs+StIkSQvIjC7S0cWgbC0Ay42SJNttb+vNwMer/CX1ZpYbxkm2U85zcnGS+WGZV4SMAcuNle0SGqdoMl+6HOJ4825GSxEoEXhSejqY48UYI3G7Y+Scri6Ecer6Ze4eLTdK0qxXhjdTJC6M04qKiVazhpl5UZKyUsxMETmCUbkJTXl6vrxFgf0smkzLlUPMlc827f+wlLzRc+kX6CMrECgpJWjs6GJYtgh5bmalBI2qRHHZ029N1vFmEcZQLaQVM4ciUUpwv1TJjYwx109koWAp1xyaQm23zLA2jNMgSktZjCGEhkInTsmzZGQFAk9KCRoNjU/SrFyZQMuNKLftnW2OInGUoIrym1ez1t5Ml2kpvkKVKOVQuf2204x5QVxMmG2Rji56YVJiWOv4cRSnva3PaXMMlS/9SHpoBiLFW17+5lCCKYfL9WamW1xPbQ5VopTgRvpQr+XNynrOPOGl3OXE9iLGwJa1UlPamhBEaVCesk1eYtdrleDNAAC6wrtBUm4xUd4OasuExhyMoEBJuWZmu1uJlMwiCUTgyz+qXYcLvlzGmOmGaknPiRDUFH5Q6ia+P/Y5DhXTP1ykrQlBmATleTPPT+KkuOTWHLrCMwbKTWjKl9FSohWEoEBxiUEjY8xySlvlMUJ5/95SPm0jLjCzOMm8INkyaXgWQ+XLLTYZTHxKUCmxOwDAUPgoTv0yvVmEEZRLGp6uUIxhv1S1+hKjFYyhxBPHL60bQRinXhiXOP1aqlBp55rzuMDMvCDxw2TLUp9Z2io/MMvMgu+PPVpUNHsRnmJCUFCePK0TxPJ2FTqzGCqPETwrL+rOMmZvJx03C0ZIVwXXj8sKa70g8cO0lOuQnJbK9yflF2FcyAVmljGmiNy1nlLW7zNUwXZL+zMAAAaToKytBQCAYMgRVKo3S2ShhHTBHEWklMP98szM9rZS850DI2go1PWTsjps+WESRElbK9ObWW5V8moruGB2qhL9+9+6e+92u6zflwcAJQpIDU3fUPhSthYAAIIR5XBZezPGmOvHssTBMq7OAQAEI13hS9xdnI09jqDC2vRzYAR1hXeDuKwrYC9IgjBpqaUFU4bKMwaq7mW3yAVmxhH01I1WWX8GAICh8uUK+g22E2OZg2AkUOIF5aTkJClzg1iT+ZKsDAAAurpQ4o3I2cgnGBYWk54DIahKnF9ev8g8b6uUO70cQ+URBFX3Z16knFhrfdqagCAcltRPnTE22E5yaw5CkCpR24tKkY7JUyLaamnOFgDQNcQS1ZHPxh7BSC/aGmEOCKEocFl56shekHAc5rYu2J3S0gQIYf2nIHWbmSpxhKCywh7Xj6M4KzGoIBhpMrWcKCkjfI/ixPVjo1Qz619AcnUAABquSURBVOjC2AnL2l2cjjxJ5LYU25mF5zBgoLy9WUwxIlvoAs6hyZRgWJHiywrqNjOEUEcXhiXllQ0mAUTbirHMwuVm5pYjVRDEqRvEhlJu0CimKSurc+fZ2OtoJVQPTOEpBrAcM2OMeUFCKS7WIHYpBKOWJtSf1li3mQEAeoZY1tXZ0PQR3FYLaBaM89rTcnoaRFEaxWlZlw05HUNkjI1LWo/PRl6JITcAgOcwQqgU/bI0ZY4fywIp0cwAAD1D/BthZjstqaygsT/xIdxKNHuOfHcRRGkpQWMQpwAASnGJ7qJnCBljpWziGWOnI69bRvXAFJ5iiSeWG21/Qx0laZ5pRUq6rcnpGeKo9nyrBsys+5E8bQlxxdDyZYGUUis1RaQ4jtO4JG8GAKTbKUbN0dJECGEpNyKOHwdRWmLuAQCA57AscpZTgjpylGSOH2sK5cr1Zi1pbIfl1hZfSBNmZohZxiynhMy34SQoK11wisCTKC3BmzHGgigFDJR1dZ6DEWyr/LiMsGf8kZh0mV8gz2FJIJMyzCyOU8eLNYmWGzR2W2KSZLZXa+fOZvZmacrMMjbxQ7MEMZY5BEpYBrZP0mcMuEFMOVTieXROxxBL8Wb5QVSJORYAgDzxzSqjpUaUZEGUSEJpqWo5PaMS/bLVNLM3S7Ns+zTz/NKsrBqTKSKPeYq3n8dpxkwnlEVuyxYQi/QMsRRvNpz4AIBSKrunIARlkXP9ePuGjFGcZhkT+W3FpOfYMcS4vKPaNWnAzAyVBwBun/Dih4kfJqWbmcATgSfbH0blS4lc6q1UTlcXcyGaLT9nZIWqxAm0tByLHFnkgjDZ/ggkTrI0YwJf8rfX1oU0+xvgzQhGmkInWy8nphOlWdYtdWsBcmUbirc3syxjphMpFXizbkuIktTZuqxrZPo77W3VfBdRROpvLUKei0mnGSt9FeAIlnny+TczAEBL4S172+e03DDNWOnejKdY5Mn2UVmaMtuLJHGrjthL6RlSFGfO1gpcQyvYKXtnCwCQRRLH6fZtsm0vohwqRT1hjrxBbukfu4KGzEzjtxdbn9hhmrHSj0AQhLrMm862f4Y0y/wwUUuS3JplpyVFcbqlAleWsbEV7nXKN7O8WmdkbXU3lTE2skJZ2LZDxVJ0mf6NMLO2JthetOUueeJElMNlyRPMopbxZ0gz5oeJXFLy+yx5NceWR9JBlPhhUoou4ByKyPF0W9lWluVqzUTYWuV2EU3J1ZHruzprxsy6uuiH22oBWG5oKLT0kAwAoMl0+5OoJMny5oalDGkWjiCBx/Z2nWtsL07SclRu55BFjt9aHTnPdJEEIlTgzVoq74dJnbqoDZmZIYZR4m0nTzuxw22apq9Ak6gbJFtmwZtehBCqwswghIrIOdt5M8eL4rQc0ew5JIEIlGxZbMIYsL1IFrly76ZzOpoYhKkXlNxbZwXNmFmvJYVRuo0EEmNs4pQjmr1InuCzZVlXf+zztJKYFkGoiNRyt+q9YrlRmrKyBCRngRAaGr+lmWWMOV6sVhByAwA6huCFcblCd6tpxsx0haaMbbOc5H1qyk17naLJlGxtZsOJz5enBTQLhECVOdffqkGu48U8xdv3qVmKofCT7ZKbGWNuEKtS+d8eAMBQ+TjOym2psZpmzIwjiOfwNs/p+nEYlaZ/OIcmU0LglvK0A9MXaDmq1HMgCA2F97aT3LC9SJPKkWdcRFf4LdvPpinzg0SpxpsJlGAMP/9BI0ZQ5Mk2z2l7cRCVJpo9hyxylODTLb2ZGagyLbHydwqEoKUJubZf4Q+x/VgrSZtgEUPl/TDZ5urM8kIGQEVmRjCipEzZ1gtpysyQyBPXjwsveI4fhXHS27rT7FIwQh1dOB6523zI2ApapcoTTIEItjTeC+LCZsYYs93IqOYACQDQUngI4TbCSv2xTwnSqgkaCUGUw15QQu3pmjRkZh8XKRfeXbheTDAS+Er+DACAti6eDoubGWNsZFV1EAoB0CQaxsW1/sM49YLYKDU3fxZd5TGCwy30JE9HHuVwRUcgHEYiTxwvqq2lYDNmhhA0VMH2igtTOn4s8qSU1oFL6erCydAr/GeIk8z2qnIXEELKEQRhYXXkIEy8MOmUWtA5i5GLkG/hzc5GHk+xUpU3g7pCbS+O4ppuqBsLGg2Vt72osPxw1WbWMUTHi/2iu8eJHTIGStQCmoNyCGPoF938+GHqBXFbq+QACQAg8pwkcNvcUJ+NfV0uuaBzCoeRrvDWFtNvUxoLGg2Vt9yCz5krv8sCh6v5MwAAeobIACgsDXQ69jCGRnnKdnNQDmOECu/N/DDxgzJFs+dACHY1cRvZ1rOx19HLlNyahRCky9R2o6gule+GgkYIZYELo7TYc+aXZrrCVxk0igCAwj2iBmMvF5QvdVCfQAniKfaK9l7JN3VVZOVO6bSEYVEzY4z1xyVLbs2CEVIk6kcld4pbQTNmBgDgKc4yVuw5wyh1vLilVmhmbV2AEBQOe07HPiWooh08AIDjsCpR0wmLSQP5YYIwrCgky+nq4tAMim1uozi13KhdTe5BjsiTLGXx597MBA6nGSu2Bw2ixPFjXeVxBbdSOQLFmkwLZwydjb2WJlQX0/Ic0mRqFlVHDsIEQ1iuMNscPUNwg6TYIc3A9AGA1Z3QAAAEHqdZ9jkPGgEAPCWMsSAqcncRRmkQJppMy2potAiEcL8rD4omgpyNvNLrTWehBGsyLabynWXM8WOe4nIlt+boGlKaFlR8ORt5EIGKElZzRJ5kDARlyLauQ3PejGKeYtMJCzxmEKWMlS/GMsdeRyq8N+uP/V6VswQhqErUC+I42TjsSdJs4oSqVLL+4RxdQ0gzVszM+mMfQViugOQcIk94DltuVM/NWZN7M0ngxlZQxJvFCYCArybtdcpeRx7bQQGV7yhOJ07YqdKbQQhlkYuiIrKtcZKZTqTJtNKgMVfjLFYjfzbxZZGrIh10isgTSeBGhaZfAZozMw5LAhnZ4aZHZYyxvM0fX7Zi1Bz7HTlOsgJaAPmlWelaQHPIIhclWYGgMU4z0w41ma/Um4k8J/K4mJkNxl4VhXCziDyRBDK2g5K6ZF9AY2aW62YW82a2F/EcKV3zaI79rhwnWYGJMrSCjLGdKr0ZAEAROcaYt3nRVJJkjh+rUiWF57O09YJNIU7HftVmxlOsiNzI2qqMYH0aMzOEoCJRx9+4L2bG2MQJFYmrQiVilr2OnKRZAT3JkemzCrSA5pDzIuXN53GcZFGcymK1O1uQt2LbfHhpmg3NYK9iM0MQKhJn15XW2JiZAQA0iTpevOlj5mIssshVvTfTFR6hIrKtg4kviaSifLwpksiJPClwsxcnaRinVZR1z9EzxMnmVw6OH0dxWoVIySwQQlWijvd5PwIBACgS5/obd+j5yJuJXNV7MwRhfje16f84mAQ7rfJlRueQBU4UiphZEKVpmslVHjDk7LblIEycDaWBTCdMM1Z10AgA0GTq+iWoI69Dk2amy3yUbFwrzj5Wiaju8neKoWysJ8kY60+8/a5c0ZCmcASpUpEL9MHEFwWuamcLANjrSH6YbCrFN3HCNM32OpV/gapMwzjdpjR2fRoNGhVKCT4ZbnYFnDEQhHEVGhuLGCpvOZuF7/lx+V678lkCITRUvkBM25/4Ek/qCBpbYhinm+pJmk6EEaqoVG8WTaKUQ/3tpCjWpEkzMxSep/ho4Gz0fzHG/DCVq1+MAQBtVXA3lNywvSiI0irUfBcp4GzBR96M1BA0ygKHEdz0RsR0Ql2tqgRmFk3OV/mtauTXpEkzU2XKU3w82Ow5gzCJkkyrLCt3lq4h+mGyUVhrOmEYpzUEjQAAXaWuH2+afj2yAlWilWZa5RCMZIGzN9T6N52o0mzGKdpHq/zn3cwIRl1d3PQ5jwauQLEmVx5UAAC6LdELko0E/SZOGCdpDVsLAEBLETBGmypwja3QqEakZA6MkSiQjfQkK5XfnIPncFsTjvqfdzMDAHQNcVOvfdR3RJ5och3ezFD4KE7dTWqoTSfiKam0lGuKrvIcRht9gYyxiRNUJ7YzC8ZQk6nlRUm6rpmFcer6UacaXcBFCky/YjRsZj1D7E/8jfIGjwauJJB6jkByHYSNvJnpVKh/OIehUI6gjc6Qwjj1gqQeMyMItTXB8aL1pYG8IPGDpFeXmfVa4unY275/74U07c1aYhSnG+UKHA/dlipUV2k2C0cQT/H6ncQYY5YTqjJXXYXOLAIlqkQ30pPMk991tY5YAGPY1gTLjdevOnP82AuTeg6QAAA9Q/TDZPvGsRfSsJnttCQE4fEmjvuo7/ZaYj3ughIk8BvsLuIks7yorQmolu8VQtg1xI3OkA77DkdQqzKRklkwgh97s3UPaWw3CsKk6jy1KR9Nv+pPQZr2ZrqAEFw/7EnT7Gzk1nMSBQDgONxS+cna1ZNeELt+3NFrWgVAHvaMvPXPGI4HDkfquJUCAEAIJYFkjK1/BWx7EeUw5Wqall1DQgiebKd7uw4Nm5kscqpE1xceHZh+koFOlSoRs1CC2ro4ttc3s8Tx4q4u1BM0glxywwrWL4c5HniKRKvOup4iUAI/Vvi5kFwLmae4hkuzHFXiZIGcfO69GYTwoCuv781Ohh6CoLaTKI7gtsqbdhitV6TsBUkQJS1NqMvKQK8lJptU6xwP3Z5Rn7MVeAwh9NeT0c4yZrlV9TRbCkJwvytvtGcp+Iuq/gUXcq2nHK+dCHLUdzGCVVdMToEQaDIfREm8njSQG8QQgqrVE2bZ68hZxtYPBx6f2ZWKlMwh8kTkycQN10lYC+N0bAcdTaiiv8d5XO+pn/+9GQBgvytPnGjNw6jjodPS+KpLYKbkWgBJmq3vzTBGVZcOzLLblgAEJ+sdNnpBPJgEB12l6lFNyc9Cx2aQrnF1Fkbp2A7bulhDUviU/Z48tsOqG+Q2b2YHXTlJszXLE0+G3kFXqc1XAABkkWQMrPNnYIx5QUwwonWtAgAAyuHdlrRm1J0n3Bx0azrHA7mZyXRkhetcjQZRarlRpfKbi1zrKUmSjbdrenghzZvZfk9JM7aOjHaWsZOhe9CrbzEGeVkXT9bpIZRlzHQiVaJ1ejMAwPUd5XTorrP5yYPz/Rq9GeWQKnETJ1znCjiMkzjJFJGrcxk96MppxgpUeW9E82a20xIhhOuUJ7p+bLvR9Z1azUyROE2ix2tkviUpG9uBofA1m9nNPXVoBuskED8+c3SF1nOanwMh1BTq+FF6kTfLlZTSNKuhEG6WnZYEISig9bARzZsZR7ChrtURfGj5Scbq3FoAACSeUyS6zuYnzbKRFWhK3d7sxq7qhck6iojHA/fWnla10s4chsI7XrzOlYPtRQjBGip0ZuE4bKj859+bAQB6hjBax8wmQZpm13p1JL9PwRgaKl3H2cZJZjlRq0rJ8aXc3FWDKBldtLvIMnbUd27va/WMakpLFdYRbMwY6098ReRqqDedo2eII6vafKtLYWY7LWlkBReqMgxMnxBUXaOQpUAIW4qwjhBakmZ+mBhKHTUms+S3iBeO0HJDN0gaMDONl0Xu0am9+m1ZBs5GnirR+s1spyVN7Iun3zZcCjM76CqOH19Y/zeY+DVI2SzS0vJ8qws2P7YXp1lWXevA8yAYtZSLo+6zsR/F6d1rej2jmmKogiJx94+s1W/LGDsb+5pChVpqiGbZ78qOH1fa8f1SmNmtfdX149VxI2NsYAa1lUjMYqg8Y+DC6snDM0cWuToPGHIQhIbKj6wLroCHEz9j4KDekBsAQAnq6uLj/gUZCFnGTCdsqfXlqU056Mr56Vp1v+JSmNluW04ytvq0J4jSiR3UP0sAAC1VoAQ9Pr1gojw4MVWJ1lPKNQtCsGdIpnPBHWt/4msyrVqqeREI4V5HvjDTgjFmOmH9sQAAYL+reMFaZ0iFuRRmJlCsiGT11dnYCmwvvr1fd8wDADBUniPo4UW7i0enTlsTastQmYIg2O1IthutLj8dmH63sjazq9nrSBMnXL0pcP04jNJWE2YmCxxH0Phzb2Z5BdRg4q/Yhp5NfD9Mbu+rdQ4sh3K4a4irdxeMscd9Z7fdwNYRIbjXkWwvWjGPoyQdWcFuLQoli+x3ZILRh0fmivc8OnN4iitttnQeHIcUiRuafnVC35fFzPY68sgKVlRMDCe+yBNZrKPsd5Ebu+q7j8cr/gx+mIzMoFe9Vu4iuU51xphzvjez3cjx4oNa9LYW2WlJlMOr16mHJ5bAE6OWetM5OIx6hjQw/eoyGy+FmRGC9rvy0Ay8c8RtsowNJn5LrbZX0AruXtNPh96KavZHZzaEYLfVgJkBAARKCEIrxBSsRs1MFEhXF+6v9GbvPBx3dbEeiZc5OIL2OtLZ2N9UAHt9LoWZIQg7uuCHyXlltn6YDMxgry3XoC64lCeuGxkDK9bjDw8tglGdNSaz5K1PLffchgSWG6VZVvOV4xQI4c099cPjc789xtg7Dye39+vOUMlBCHYN0XLD6oS+L4WZ5WEPAOA8b2Z70WDiX9tVmjKz6z1F5Mm7j8bnveGDQ7OjCWotIq2LCDxpqfzQPLeM2nRCnsO1FU0vcntfOxq44TmbgsHEH9tB/Xd6ORBCXeGjODtv+m3PpTAzAIAicpTDE3t5V0HHi10/7upiI6sdAAAheO9O+4NDc+nwGGMfHJm3ak+wmCLyZKctHfYdf9k8zjI2tgJJ5Gi9yZaz3NrT8gKLpT99+8GYYHSrifOtHF2hGMHxOdNvey6Lmcki19GEx31nsWKCMWZ7EQRArUv/cCnP3+kcDdylcUUYp8cD99ZeY7OEI2ivLQ8mvr9sPQ7j9GjgHnSVekRal5LXVZxXF/fOo0lL5bt1CVotosm8ofCPT5dMv1K4NGYmcG1dODxzFncXGQMjK+B5rNZbIjHHc3c7XpAsnShnIz+K0wa9GYSw1xajJF16SOMF8cnQvbGr1H+nN0WTeU1ZXujAGHvn4fjpm606qznnUCWupQmP+0umXylcFjPDGHYN8WzkLT5nkqSHfaeji03tfHKeuq6nGXt8tuSS+vGZnWWs/qzcWXZbkirR9x5PFn/kBYnjx7ttqf48pikIwTsH+qMTezEqm9jh6ch7/m6nkYHlEIx2WuLp0P2cezMIYUcXh1awWM0eJ9lR3+nqQv2527PwlOy0xcNluXlvPxjvtKVG7nymtHWxq4tvP1hySHM69CiH61SPXMqXnu4dDZzFZIvHZ04Up/dutxsZVQ6EsNeShlZwYflpMS6LmQEAOrrA2JLwPU6yiR12jcbOP6bc2FFPhu7caZ4XxG8/HH/t+b2mRpWDEby5pz44tRbDgbceDHdbUiMJFrO8+Myu6UYPT+bDgYenNuXQtXq1JxbZaUsQwIr6MF0iM9ttSYZK/+Lnx3Ov50UK9TTjWc2dA31sh5NPF1A+OLZMJ/x602YGALi1p1lOtNh+8t1Hk72uLAmNnX/kGCqvSfTRqT2bTMMYe3hi3d7X6lSzWspOS1Qk7ucfDKr48EtkZorE3bvd+eGrh3OVXa+92xd57sZuw6sdAODOvma70WCmYIcx9t7jiciTBo8Zp9ze1ySBvPLO2eyLfpgc9d1be2qzESMAgGB095r+4MTyZpLCvCA5GXlPXjcaHFiOLvNPXtdffuUwzcqPGy+RmUEIv/Lc7sgKfjGzwWCM/fCVx09eN7pNVJrNoSs8hPB09ImMVBAl94+tJ67rHGnsEG+KrvB7HfnVt/uzL/7iwQgCcH2n+VWAYPjUTeOo78wWevfHvuWET99sNTiwHITg157bPxq47z9elRRW8MNL/8RtePZWu60KP3rtcPrKgxP7sO98+d4urqfJyko0hd450N78YDRN0u2P/cO++8UnurXpUa8AIfjMzdZr7/Rnj8te+cWZLHL1NOldDYRwry2H8SeanIyxtx+Owiht9pB2yi891VUl7uVXHpf+yc1Pjlkwgi99+fqr75zlWbCMsT/+q4ddQ/zC3SaPoaYoIvelZ3fefTw56ruMMcbY6ciLk/SgpzR+PJNz707bD5P3Pz7Wj5P01bfPnrnVugyrAACgrQstlX9wbOXHSJYbvf5u/yvP7TZ7VTOFYPQff+XGX711smm/7Au5FN/+LC+9eD0I05++NwAATOzwr948+dtfus7XXvO7FAjhUzdabVX467dO0pTFSfbg2OoaYv0V0+fx1A3juTvt/+s/fGA6YZaxH756eDLyvv6F5o9ncloqf2tf+8X9cRAljLEPj8zTkfe15/YavDef4z/6yo0wyl77dOC9PZfOzPa78s099dV3zqI4ff3dvhckv/rCtaYH9QkdXfylJ7t/9eap7UXvPBz/5Vund/a1ehphr4PIc//1f/rFDw7NP/vp0Vv3h//qB+9991fvfOFut+lxfQTB6Pa+dth3fvCTx0GU/Phnx7cP9Jt7WuPHM1P2OvLdA/3Vd86SJMsDlhVv/r3f+70//MM/9LyLNTwvhZeYBSH4t764/0//zVvvPzYtN3z6VqsRmZ3zwAh+5d7OH//1w//1n7/+8NS6uat+44sHTdUNLOWJa/pLX7r+h3/6IUawa4j/xa8/3WDG8BwQwhef2TkeuP/yB+/+9L3+o1P7H3/nXrM5dHMgCL/14sHv/cEbHx6ZjLF/+O1nv/78/nlv/v3f/33P877//e//9m//9je/+U1Kz11tSRiGaVptO4xN+dYv7RoyeXhqnwzdb3/9VhRVKDlUgK5Ov/JM509+8vg/e+mJX//qTY6gyzbCX/nizvuPBod957/8O18gMAvDynsrrw+HwG9+69ZT15R/8q9e3+sqz93SL9u39+KT7f/8pTthnPAcvtYVVnx7iqLYtv3GG29873vfe/HFF3/nd37nqaeeWvpO+Oabb14el33FFZ8h3njjjXyN+NGPfvTjH//4pZde+t3f/d3ZN9y6dSv/D+j7PiGXLnS84orLz2/8xm+cnp6qqvrCCy9885vf/M53vtPr9WbfMDUzktPEIK+44rONpmm3b9/+7ne/+9WvfvXatWsYn7sHhnEcX5nZFVcU4MGDB4IgdLvd8wzsE29W46iuuOJzxdSKLuQSnURfccXnlSszu+KKyrkysyuuqJwrM7viispBK04hr7jiilL4/wHWuQJ0Z27vPQAAAABJRU5ErkJggg==;clipPath=inset(1.34% 2.76% 0% 1.03%);imageBorder=default;strokeWidth=0.25;" vertex="1" parent="1">
          <mxGeometry x="280" y="260" width="211.71" height="140" as="geometry" />
        </mxCell>
        <mxCell id="q82MvRItSnuRYg2Ndtge-5" value="" style="endArrow=classic;html=1;rounded=0;" edge="1" parent="1" source="q82MvRItSnuRYg2Ndtge-3" target="q82MvRItSnuRYg2Ndtge-13">
          <mxGeometry width="50" height="50" relative="1" as="geometry">
            <mxPoint x="400" y="350" as="sourcePoint" />
            <mxPoint x="536.8939473684211" y="210" as="targetPoint" />
          </mxGeometry>
        </mxCell>
        <mxCell id="q82MvRItSnuRYg2Ndtge-8" value="" style="endArrow=classic;html=1;rounded=0;" edge="1" parent="1" source="q82MvRItSnuRYg2Ndtge-3" target="q82MvRItSnuRYg2Ndtge-14">
          <mxGeometry width="50" height="50" relative="1" as="geometry">
            <mxPoint x="400" y="350" as="sourcePoint" />
            <mxPoint x="519.0265789473685" y="450" as="targetPoint" />
          </mxGeometry>
        </mxCell>
        <mxCell id="q82MvRItSnuRYg2Ndtge-11" value="" style="endArrow=classic;html=1;rounded=0;exitX=0;exitY=1;exitDx=0;exitDy=0;" edge="1" parent="1" source="q82MvRItSnuRYg2Ndtge-3" target="q82MvRItSnuRYg2Ndtge-15">
          <mxGeometry width="50" height="50" relative="1" as="geometry">
            <mxPoint x="400" y="350" as="sourcePoint" />
            <mxPoint x="237.99086757990858" y="440" as="targetPoint" />
          </mxGeometry>
        </mxCell>
        <mxCell id="q82MvRItSnuRYg2Ndtge-12" value="" style="endArrow=classic;html=1;rounded=0;" edge="1" parent="1" source="q82MvRItSnuRYg2Ndtge-3" target="q82MvRItSnuRYg2Ndtge-16">
          <mxGeometry width="50" height="50" relative="1" as="geometry">
            <mxPoint x="310" y="280" as="sourcePoint" />
            <mxPoint x="246.36763157894734" y="210" as="targetPoint" />
          </mxGeometry>
        </mxCell>
        <mxCell id="q82MvRItSnuRYg2Ndtge-13" value="100% Perturbation" style="shape=image;verticalLabelPosition=bottom;labelBackgroundColor=default;verticalAlign=top;imageAspect=0;image=data:image/png,iVBORw0KGgoAAAANSUhEUgAAAQMAAACDCAIAAAAGdOnwAAAACXBIWXMAAA7EAAAOxAGVKw4bAAAgAElEQVR4nO29V5Bt2Xke9q+8wwmdu28OkwMHA4AYACJAkSIJQCRBkQJNU5ScSjRVZdN2ucoPerFURT+4ig/2k00SpF0KkCVTIghRJAAhCQKBIYBBmoDJd25OHU/YcUU/rNO7T+hwuu+93de453uZubv3OXudvfe/vj//yDkHE0zwwAMf9QImmOC+wEQSJpgAYCIJE0zgMZGECSYA2Jck3FxNCqnv3VImmOAIMa4kdNLyD/705dcvbdzT1UwwwVFhXEn4y+9ff+Pyxu319J6uZoIJjgpjSYKx9ovfvmysy4qJdjTBjybGkoTLN7sXrnc4wxNJmOBHFXSck55/6fpMIzi9VM9Lda8XNMEER4K9JSHN5ffeWPmp957sJGVWaOccQugQVjbBBIeJvbWjt6+119r5xz5wthbxUhml7SEsa4IJDhl7SIJz7o3LG8fmasfm4nrEpTKlMoezsgkmOEzsIQnauNVWfv5EEwBqEZPayokkTPCjiD0lwSpj44ACgOeEQk4kYYIfQewhCcZYrW3Ae5KglJUTSZjgRxF7a0faWMEJAMQhk3piJ0zwo4m9OMFabXqcwCjGCE0k4QB4+e2Vm6vJUa9igt0wFicEnAAAJYhRXE60o31CG/t7n37pC9++ctQLmWA3jGExaxcIAgAEI0ImnLBvdDOZFTor7t/wvHOukFqbBzpStLfFbIwVnAIAxpgSPJGE/WK9XRjj7mcu7aTyX33xzVcvrj3I7R32tBOcNjZgPU6gZKId7RsbnVJbez/ftzRXF661bq6k9sEVhDG0I+scpRgACEGckVJq+yDfsP1jrZMb4+7ncj+/3+VSw4QTdoI2DiGEEQIAgnEc0Lx80BXK/WK9UxhzX3OCMdbrbw+uHIxjJ2AEGHtJQOFEEvaP9U5hrLufY/OeE0ppHmBKGI8TfBY2ISgSrCiNfqD3jv3BGNvqltbd1xazsc5YVygN8OA+2b05oV87igKWTThhP0hylRV6rhkWUleemVLq+8psMNYZY4tywgk7Q9sh7YgUE0nYD7qZLKQ+vVR3DqTu0cLv/clL//u//N7RLqwfxlht3APuH9+TExwg8JyAEAScSm3MRBLGRjdTpTSnFurOOal69229U7xzvX3/uOCMdcbaQuoJJ+wIbSwGhLCXBMQZcc6NYycsb2TL69ndWeP/n9FNJUJodipwAGpz081L3Ullmt8vUWdr3abv6MEVhTG9qL1/coqNhd21I63tZ79x8R/9wfP/+itvPsgxS49uJiNB6yHv54S81Na65Y2BnaKU+pULq6ut/PAXqa3VxhaleYAFYVdJcM5pYwlBeFMUOCPOul0kYaNb/O6nvvP7f/qSVGa1VUwsim4mw4BGIa3sBGtdXmrr3PLGwEu/1ik+9fnXX3xr5fC1Jmucsa5UD7RPcDdJsM5JZXwytj/CKbHO6Z2L+l95e+3Szc7v/NYHf/6vnTPGPuDl/8bYTiprIYsDZh14TpDaOAfWwsogJ1jjlDJvX2sdvuXqfUel0g8yh+8qCRaUtoySLUlg2AHs8n4XStdC+ujp6TCg2roHXBIKZZJMzTSCOGTOOc8JpTTWOeuGtSPjnNT27atHIwnauqKc+I52gHOuVIZTjPq0I0ZxunMnPKksowQhFIdswglFqTtpOdsM45A5B74ZQqmMcxCH7PZ61r8HW+uUNhdvdjpJecjrNNYaY4tJjHknWFtpR70jjGLBSJrLnT4ileGMIIBIMG2s0g/0NlOUppur6YbocYKyAFBK45w7u9TopLJ/+zfWWQda27eutg5zkc45Y7zvaKId7QDrnNKWM1KJgmBEMJLs7P6TynCKAUEUUGMeeO1Iaq1tHLKAUwc9i9lzwsOnmoU03XRrT7HWNWI+0whevrB6yOvUxlGCAED+qDyv1Y3spbdX9iXYe1vMtM9iZgwLTnZxhJfKMIoRoCigvkPM+Ev50YNPqQg4pQRh1NOOpDTWuYdPTZVSt/skwViHAB47Pf3mlZaxh3ffnAOtTRgwSnF+HxfW7QtffOHKn33tnW62o/Iyij0sZr/Hoy2LmQhOutn298s519OOEISCWuuUekAlQRt78Ub7e6+vIISigCKEBCNeOyqUcc6dXqwDQLvbMwmcc8ZY5+CJczOtbnnt9uGV/zvnlLFRQBnB2Y+K0dxJpbF2X6miu3UI9qotowRvygsjWDDaTrc36Yx1SvdawhCCEUYPJicYa//ZZ199/dKGA/ehZ07MT4UAIDjpWcxSOwf1iNci3s8J2liE4OFTU5Eg339z+cyxxuGs1jsDo4Dlpf6R6YWeZMoYt6+0oL0sZj0QT0AIxSHdKQ6qjVXaBpz69FVK8INpJ3Qz+cVvX3n6odn/8dff85EPnIlDBgCcEn83pLIALhS0GfNO354ilSUET9XF2ePN77+xcmirdQ60tpGglOD8fp2PoY39w8+8/N3Xb495fpJJn2o+/iX2sBO0caxPOwKAp87PrrbyH76ztu1ylbGhoAgBQsAIfjB9R+2u1Nr++OMLx+droaD+7glOyk0vqmCEEjxVF+1E+jC8c1BIzQimGD/10OwbV9YP7dY555SutKP7VBI+9bnXPv/NS29cHnfMXzdT9m5KggVrHSUD5zx5bvZdj8x/8jMvj7Yt0doqZX1LGIwQow8oJ7SS0jqYm4r6D3K2pR0JQTFGi7NxOy3zUgOAAyikoRQTgqZrwlo4tPFFznntiN5vFrNURmqjtf3yC1f+4hsXm7HopOWY7qBuLn3gfPzL7WYnWOestb6cf+sDBH/sg2e/+r2vf+PFGz/73Ol+ulDGKeO1I0AIUYIOXxL8Die1rYXskC9doZWUGMFUXfQf5Ax7H2UpbcAIRmhhKnzz8kZe6nrEwblSakYwITgKGAAUUjdBbH+BuwoH3mJmlNxH08Occ//2axeUtgSjr3zn6sc/fD7NVZorYxylaOjM0dE2SaZqIdd3ixOcc8Y6RoYvc/5486+/+8QXv31lvVP0H9fatxMmCBBCQCneJUPpHsE6960f3vrCNy/lR0f07aRsxJwN7iBikxMKpQUnCMFMI0gL5VXzTU5AvljcOZcflhvH2wmhoIziI7xpQ0hy9emvvv365fU3Lm8899TiJ/7GI/NTYV6aoVq/q7e7//rLwynP1to0V9bau2kxj2pHAIAx+jsfeXyjW7z45oBhV1nMgADjo7GYrXWvXlx78a3V9qHnLFRod+VsMxzaqPimF1UqIzhFCIUB9XmpAAAOSmkowZTgKKAOoDisl9J7UQUjgpP8vim2vnKrEwn6dz7y+G//J8/++s89HgdsphEUUg+t8NLN9p9/4+LtwUqYrNDeXDb78aLuYTFbC5SQ0T/NTYWzzXBtiBOMVdqEgiIAhBCjuFTmXgfwnXOl1FL3LmQdrLWL9U5xVJLgnGsl5VwzHDouGPWLLKUJOQUAH3jxm5wDV0jDKCYYxSEDB4e2PTsApQ2lOBL0/vEdXbjWDgQ9s1SfaQbe+TbbDPNSD20Qaa6L0nz3tQGfkvdNG3M3fUdgnKUj2pFHKMjQsrS21oHPwMMIAk6VtvtazX5hjH390vr/+k9f+JOvvOXT+p11G92y1S3biTySLBrrXDeTc1PB0HHBsdLWOSikEb2OyxgB8tEf56BUmhJMMIoEdeDywyr59xYzJTgU9NAuuifeud6eqYtQbNmxtZhrY4c2iLzUxtrvvr7c/6y9b9o4t69Q/a6RNa8d0e2lJeDDN04bixEQ0iv1DDgplTHG0W1I5eBwzuWlbiWl0vbNKxuf/g9vl8rUI56XuhZx61yrW3Qz2eoWzsHhTwnNS5OXem56lBOItU4bK5Xx1jzBCCFQm2xWStOIOMYoFBTcvdWOrHVZoQSnjGKfgUcJCjhdbR9Bxdy2eOd6+8nzs/0aJqeYETxkJ+Sldg5evbhWlDoMej6STiphsyR1/CvuJglmBzvBIxS0KE2/5a6NRQgRjAAAIxCcSmWMtQB3UxS0cf/u6++8+OaKNm6tnf/0e08hhC5cb2VeEqzLChWHdHkjl9r4yQ93HcbYayvJ6cX6qNcizZVUxseV+xEIaqwtlZHaCB4AACWYUuJzof3GzBhBCFGCOcP3tFpgpZV99vlLP/Wek2ePNcCBdY4QLDi5TyzmUpnrK8lHPnCm/yAlmDHSf1v8nnh8Pr58s3vxZufJc7P+eCeRGAElaF+csJt2pI0BhHaShChgUg10AVPGYQwE93GCNHe9FtFY+8N31o7Nxf/FLzzxO7/1wV/72UcfPT2VZMrHN7qZEoyeO968uZreu2ZbL19Y/Z0/+uYbV7YJ9KS5KqRZmI6GjgeMGuPyQhvjooACACEoYCTLlXXOgZPacIYBACEUBiy7l4kPa+3iO6/eXmnl0LMGHSU4EPQ+kYTba6nU9tRivf8go5hT0q+GKG0LqZ95aC4O6CsXtkK97URSiiPB9pV3tJskFNJSjBjdXsOIQ6oGR3F6TsCVJAgqtblzO0Ebe+VWp0pg9l6/M0uNp87PnVioc0ZqEbPOeWtvpZWFgp5ZarSTchxJ8J7i/VoUb11trXeKP/uPF0blPC2UVGa2OWInCGKty0tlrAs4AwCKMeckl9o6Bw60tnxTj4wEvaecUJQmK1RWKP+7rXMEI8GOwIvqa+WHbuO15QQATszX+g9SgkJBslxVJyttS2mm6+KZR+Zfu7hePcROWtYCRgm6a76jUmpC8E6cEAdMaSv7kgK09toRBgCMIOBEyjuVBKnMl1648j//wV+9sOkfcA6kspxvaVycEoKRzxRYaeWc4VOL9bwcq89cN1Nff/H6vvRj69ylm52pevDKO2sXrg9X1aS5YhQzNqwQBpwY6/LSGOO8IUgIEpxkhXbWOQCpbRWCiAK23yZ5pTRp31uyO3Kps1LnpXHgnANngRIc8B4nWOdWW/n4Ad07gTb2Ky9cHSrJuLacxCGbaQzsJpTgRsw7mazaREhlSmVrMX/fE4s319MqutVJZT3mGN897aiUhpKdtaOQKm37864HLGaMAk7LO2sTJpX58gtXPvXZ1ypvIwAAOKmN6HvVOCME46zQzrmVjZwzcmqxBgDrnb0dqWvt/P/94huXbnTGX1WSqdtr2Uc/cHpuKvza968NxUzSXIWC4hH7QXBirMsKZawNRc93JBjJC20d9Dhh80dFwb4VlVcvrn3p25fH0amcc3mhilLnhXIOnHM9TuDU11gXpf63X7vwmf944RBak3RS+fzLN4aiY9eWu+eON7ZKJQEAgFLciEUn7ZMEbaXU9Yi/65F5Kc2lm72H2E5lI+YIobvmRc135YRaMDCK0zmntcWbFjMCEIzcoRf16z+4/m++8tYn/sYjp5fqcutCINWAJAhOAkG6mXQOVtazWsiWZuN6zC/f2vv9TnPdSeW+GlnfXE2TXL3nsYWPf/jcy2+vXb45cJUkVz4HcQiCE2Ot7yq7ZSdwkpXaWm8nWMZ6tzoO2L4kwTl3+Vb3Wz+8NU5kWhvXSaV1kBUaHDgA4xwhOBDEWqeUSQt95Vb3s89funCtPf4aDgZP3a9eXL96u7u5PHtjNXn45NTQmT1OSGS19ZTSFNI0Ij4/HU43xIXrvdV2krIRC4zRXYsx96KeO3hR43C4UllqSwmu7ARK8X7zAYfwyjtrD52c+sj7z9RCXrXNsrZXU1qdJhhpRL17tNrOp+qiWRPNmrh6q7vnJdpJIZXdVzuJm2sJxujYXO2Zh+c5wz/o61BknUtzFWzHCSGn1rq80Ma6QDAAwAhxRgrZs1OUNlt2QrA/O8FaVypdKuvGuNvaWO9nzEvtwDnnnHWUoIARQJCXupQ6KxRC8C8+/7pzzjl39VZneT29F8pSXmo/t+Er37nqj7STMs31+ePNoTMJRrWQJXk/JxipbRwyhNC5Y43ry4nP7vGcgBEcnBOcc91UfuFbl6/c6gBAIQ0haMfImrcTqhfUN8JghGySGiHIOTiw78ha183kbDNgFPsyF/9VudQYI8G2Vs4ZadR4Kym0savtYqoeUIIXZ6Iba+meV2klpVRGynFj4c65W6vZ/FTIKK7H/Lmnjr12cW1js/RMKZsWqhnzUe+qYN5O0MY4rx35QjaljDfYlXZ8y06gxX7q661zUlmpjR3jI9rYTiYBIOtpR5sWMycIUC6NZ8iPf+j865fXn3/55vMv3fjHf/TN/+cLb+yZO6ON3a9CVUjjnHv/U4v/4bvXfJ3QykZeKnPuxHChEkIoFFSqrUsoZTACr7OcWKh3U+lTUJO8Zycc3Hd0fSX5v//dK3/4mZe/9MIVACilpnhH7cgHRCuL2TkopeEMVxVuFOPR6Mb4jppSGalsMxYIQSiI1MbfgjRXBON+TuAU1yPeSmSpzHqn8JbW0my0spHt+WDaiTTW5WM3xy2lWd7ITszHBCNG8ONnpltJubzR69dSKp3mqlkT22pHPsvIWFtFOQQnUhtrQWvrrKt+VBwwbbe6R+4JY10ptVLjSYK23VRSggppHIBzzlofT6CAIC90KTUh6LknF9/z2MIn//Tlf/a51wQj6+1izy//wjcvf+371/ZFHUWpKSV//d0nS6m/+9oyACxvZODckOPIIxBUaat17/ultggjb5cem4uTQnVTmeXKWWhEDCNkrB1/MVtv+Xq7+OSfvtzN1JPnZq/eTgAgL7WfwbztJwlGhOB+paWURjBCSB8nAPTb72muPvf8xbV2sc3XjSAvtdRmqi4QoEiwajNIc0UI6rcTMEaNmKe52ugUUpmZhgCA43M1Y9zbfR1T1jvbdKfc6JQAkBd6TD/DeqdYaeUPnZwiGCOEjs/XFmfiVy6seiL2DpypmhjVjgjBGPWqDvgmoXlTyjqXlwr33eooZMa4Uo1rKljr/MYxDgMrYwtppuuB3KQj63yMmSCAvNR5aQjGgaB/728+8eyj87/+c4/9yk893Enlnl/+ly9e//oPbuzLwslLzSg+s9R4/NzM11+83k7KG6vpbDNk2yUmhIIqbZTpbb6lMmTTVzk3FUplOqlMcukAmjVBCdb7aeC09Za/eWXj+kryn/7co889tXRrLfW5YoRgsgMnYIwIRv2G7JB2RMmwnXB7PfuLb1x8ZbwuJnmplbbNmAOCUFCfuAE9TkD9XlTfaEwqc3s9QwhN1wMAOLVYP7lQ+5dfeN2//TdWkj/8zMvff3O4KrKVFNBLXxnrprWSMi/04mzkX/VmjT92Zvq7ry+rzXq0rNCNmI9yAgIgBGelJnirGlZworT1sVKC0RYnhMxaOz4n+G1IqrGevNZWKTNdF1JZcJ6lgWDsc8WzQqW5FJxwRk4u1P6rjz/1k8+eWJqJsjG80lmu1zrFrTGU0gp5qRnBjOKPfeDsD95a+d1//p0vv3BlfiRXxSPgBGCrhkkpg3HPVxlyyin2Hcidc/WYU4pHIxW7YOstv7WWhoKeWqgfn4uLUq91Cqktp3inzB0ymHfda5jHMB6wEwYkodUt8lKP2dkqL7VSplkXCEEYUKU2taNCE4z44J4RB14SUoyQL5GJAvqJn37kB2+tPv/SjVLpP//GxW++cuuHI0LYTiTByKvv46xqo1tSgupRzxIgGD92errVLd+50QGAUhpjXRhsk+LhIy15oShBlRUhGFHaeEsa4z5OCKixTo5tx/sebVKPFdHXxkptpxtBqY3vZe9nzgeMAqCsUK1ENiIuGEEITdUEIbhRE5SgW2t7jAHICtXqFtdXxpUE61xWaM4IIfjdjy789q8+++NPLP7ku0/+4k+c3/b8QFDB6UangM33rfJVcoYFp91MJrlyDhoxpwRrvQ/taOuZrbTzQFDBydJsxBl562rL54qNGn8eQ5zgLeaZhtjiBIytA6+r+S9pJbKU5uLNYd+cc85ny/Vfqyi11LZZ4wiQ5wQvCVkh/QbW/w2+3eK15aQqFkMIvevR+Q89c+zTX32rkOa7r9+uhaxy1VXICjXbDMbkBGPtykbWqIk42CqIO3+iOT8dfulbl588N1MqA+D8OzT0WYTAixwluF8StLHauKw0BG2Jdxx47WhcSTBuUzsa48GX0hhjp+tirZ37xjwYI4KxEAQhSDK10SnqMed9PompGhecXl9OqtyebZGVOs3V9eWutQ6PbKFJJi9cb51ebEQB4wwjhLS2WaFrEaMEC04+9OyJ3Vcechpy6v0TPqvXh5IAgDFSj3i7WwacOOfqEafkoJywvJ7NNARCaG4qrIXs9YtrUhm+cx6p30iqCgTnoJRabK4MALxHVcqtgEOrW0hlLl3vDOnr3Ux97vmLl24MHPcvDae97klS9drXpLkeshMAoBaxKKCvX9poxKI/6+7v/62n88J86nOvPffk0geePnbldrd/k/BqycJ0VJRj2QlK2evLybG5uL80lDPywR879q1Xb79xZcO3mhqSUg+EECEoKzTdaikIghOCcVqorFCYoOrlq4XMWLsvTvB0NE6R4HqnEIJONwI/bLNQhmDsvagIoW6uNjplM+b9j74W8Tigo/tIP5xzhdQLM9G1lWTbPkBfeuHK//J/fesfffL53/3nL1xfTgBAaZvmqh7xnfyTQwgEDQTxCQHG2ixXYcC8diQonpsK1jrFarvAGMUhYxRrM45XuYctSVhtFV7DZpScWKi9eaUl1VasZ5tPYuSr1KvcFd9Yu9oNCUGM4mJzyq/StpWUc1NBWqihPjG31tI/+rNXPvmZl1949VYVoMhLLTZ1rYAT1ec7Go1yxAELA3ZjNZmfHgjRzzTCv/1TD7/rkfmfed/p8ycaq628//XyE3VnpwJl7DjakbaunZRTNc4H5fC5J5eeOj/z+59+6YvfuoLRsJR6IASU4LzUZFA7YhSnmcpL1W8nRAHzAw32XJKH3Ty5GOMj650i5HS6IZSx1jopDSGIEIwx4hQnuUpyGUe8f1OnBM81w+sru/Uj8/lTj56eWmsVre42krC8kZ1Zanzipx9ZbRc/vLgOXhIKWQvZTv7JIXCGo4D6LzfGZaUOBfU6CGNkrhludMv1dlGLGMGIHdhOWGllVRH6maXGO9dbean4zpJAfD6F9HnX4ByYwZYwlGBGcVFqP6klL3U7kc8+ukAJHorLprmaaQRhQP/VF9/81iu3/MG81FVLVkaJdb1ZPlmpA06GnDNxwCJBtXHzI0mgP/mek//Zzz9xaqG2OBtp4/o9V+vtgmA82wjGjABa62SvodPA8dlm8Ju/9PTPPXfm1lpai3gUbNNMwOerb2pHvYOCE0pwksu8NL4biD8eCOI25y2M4uZqOvSAK0kYJ+lwrV0EgkzXAgDIpZbKEowIRt5hn2YyL3Uc0CEFb2Em2l0S8kIjBCfma9ra9XYxqqCvd8pjc/FPvOv4qcX6jZUEALSxaa5rEd/JKzMEhJAPMwOAsS4rdCh6OgjBqFkXaa5W27m34hjBWo+lLnr0VuA9UFXO05ljjaw0t9azXbQjjHHASbHp0nHOGWv7Xa6EIEY8JzjoSUL51Pm5OKSXBiUhK9V0I/iNjz6+NBtV3Z0KLwkIeb0C/PhDgLRQgRg2SQlBjRonGI0WBoSCLkxHhODF6QgA+mteV9s5JXimEToH42hHPnGSj5gBCKHF2fijHzjzj3/zA7/5S09PN7bpSYEBCEZZofrtBM4IpTjJVF4qjFHlOvTqyrba0Wor+4f/x1++c2PA1jKb857HkYSNThEK2qwJgnGaq9LbCQQDQChokqus1PFIZ5DFmWi1XZQ7u4/yUiNASzPxVE1cW05Go1ob7cI7N6frwvuXlDalMlGws1tmBI1YtJISvHZUqFDQqjKsFjJl7Fo79wFmQrE2+48ntJLSOfDaEQCcO9YAAGMc347oPQhGoaDVUNpemnufJHhOyMpe0CorVF7quaY4f3zq4uCDzAtNCZ6qiaXZ2M9ccs75vd9zH8UYYJMTCh2OSIJ3njKKF2binRY8Px1hBDf7fHyrrZwSNDsVGDuWduQDhduaAf73zk9HCzPRVvfMwRV67ajfTgg4ZQR3c5kWmlJcqcsIAWdk29f6xmq63imHYjK+Gg4jtJOjc7PvqgOAVlo2Yx4GhBDUzWSpfPwUAYDXPUpp4hFaW5yJwA3cvSFkhQIES3PRyYX6W1c3hlQ759xap5iq9QzRm2upc05qa4wN+DYOhp2wNButd4q81Np4TqCVh6YWMmvs6kbh0+/4wbQj75mqNrPpRjBdFwihXbQjjFEgvHbUs5iN2coXAACCB7Qj7wYOBDt3onltOek3jrNSU4wYxTONYLWd+623KE0UsN4oaIKgkoRcjUoCAEzVOKN4YXq4MKACZ2RxJuqfCLrayinFUzVhLYyTreVtoW3NgD2BEGCCSmW926RakueEojTBANUgTsm2doI3sYZqO611BKNAkCqVMC/17fXM+7itczdW069+75qXn24qG7EQjBKM0lxJaTHpxafCgN5YTQUjo5ywMBNhjG7s7CHNS40A4pAfn4tvr2dDhGas66SyUeMAMNsM1juF0lZra6wT+6krPDYXM4Lfvtoy1iltfOtR/6daxANBN7qF1458ZG3fFrP3TFWcgDF69PQ0xrA3J0iz2c/QGTdQ6kkJYpQUm2leWaF8Idv5E81upjb6+mJkhSYEc0am6yLJVCmNL0eqhZuSgL0kOADICx1ud+9mp8JA0MWdOQEATizU+7WjtXZRC3kUMIRhHPPUWmfsgSWh5yT1ASwPShBnJC1UXqp+lxdCwBjeQTvqhQL7DxrrMEYBJxUnXLrR/qd//sNvvXLTObfRKf74S2/+/qdf+vYPbznn2olsxHzTRFGFMgT3sssiwTqpFJxEIyGR6XoQCHJjZ1MhL7V/vjONICv0UJJSN5PG2mZNAMBsM3AOvKBa64L93M+F6SgM6OuX162x2rj+Z1ELWSPm1oHXjg7oRd3oFhhBM+bVHx49PYUR2jbo3fskRgEjpezFpKwDYx2jQ5KAfUqPtW6jW0aCCk7OH29oY2+ubu0ueepU2DsAABtOSURBVKG9o8kbKqvtXGrrK/S9dYkxAug198tK7RtODuHhk1P/4Fd+bG7ETujHyYXa8kZWGcdr7WKqzjkjnO42FKKC0tY64DtoR7vDv9wAIBjp77gcCZrmqihNv9KFADjdQRLaOYxIgtSGUeIdGP7Ierf8/lsr/+QvXv3SC1f+5Ctv3VhJnn5o7i9fvF6UulSmUeOCEYJRkimpDMHY7zWebANBRzmBUbw0E91YHeCE/sJAXyklGPFW3BBrbXQKhNCU54RGSAm6ttz1u89O2ua2CAVdnI3fuLxhrNNmoGArClg94gDQiIVvMnQQi3m9U0zVRb+W//iZmaGUzyEgAM6JslZ735F11th+yfGTzH3OrTZuZSNv1kXAqSe46333NCsUp5hgNNMMCEY3V1OljI+5eE7wVKOMdc6lxfbaUS1kzz25tLs/7vRiPSt0d9PbvbKRTdeFYDjgpJPuPXWim0k/X2vPM0eBEBI9Thhwy4QBzQo9JN49O2E7SVjZ2EYSikJHggaCVpygtDl7rPHsI3O/929e+qtXbv3qzzzyaz/7aKtbfvHblzFGzVgITgjBSSbLXowZA0AUUARQC9m2v/HUYt3XVQKAte7ff/PS//C/ffVLL1z2R/JCIQQBp6EgjOJONuBIXWsVGKFmPQCAmWbAKLl8s9NNJWck2I8kIITOH2++enHN57328wklaKYRcIqbNY4QUIK0GStNvfdx/59Wp5yfivqf0GOnp3/imeMnF+o7fLDX28vZnktHagNoIF3PmxlSW3CgjV1pZTONUHCCMT6+ULu1mlSx50L2FL6pmqAE317Ljs/XhrQjSrBURiqrtB31HfnL7flrTy3WlbbrnXKqHngbrlkPOCM+UL/nx7uZ4geXhB6ZCDbgAfacoI0VjPafvRmrGWj6qY31WuXQjus96xgbv0M755SynOLf+OjjD5+aikP23JNLzsHDJ6c+9fk3purCJyMIRvzwSO9FBYBAUEKQt2tHf8Kpxfr331jJS91J5B9/+c0XXr2lja1s96yXOoUDTinFQzvLerdAm0oHJXhxNrpyu1uPeSjovuwEADh3rN7N1K21TA96LxBC041AcOotZkKwAziInTCU9iQE/a9/eQ9lg1PiNvsrZYVmI4mrvccJThvb6spmjfs9++R8fHt9S0sppPY/KRS0HrOba6nPMgp4r5sAIVgwUpQ6LRRCsK2dMA6Oz8fa2I1uAQBSmW6mpmqCMyLYjoOC+tHJSj9V6ACXRoC8O2GYEwTNSu0dZX0ng2CkHClL9ls4QjDU3j0rtOAkFNQrVD68wBklBH/sg+c+/OxJ32nhZ5877XvTN2LuL53mSmlbRYEiQQnG23qBAeDkfK1U5i9/cO2Tn3np+nL3v/nEM4+fnanYKS+0b5EfCMIp9l7/ChudMhSksoVOzNeu3u62E+kTfPZ1J/2MldcvryMYtmNnm0EcUh8WIxj5wtQxvxYDgHWulZSjnvg9wSi2m5zg/YNsUDkRjPjQozY2LeRUrXeLTy81Oqms2lVUWjJCaGE6urWe+bbSlZvFx19zadJcIkDbcsI4qEdcMOJLv9uJBICpmmAUc07G4YQkVYziXbwIuwAh8NuEYKTffR4FLCtUUerB7Q0CQbUZ7nHbTkpt7GwzHOaEQjNKooD5YJx1znfaG0r+efLczBNnZ+txL/YXBTTJpdKmP/OPEDRV397/dnKxnubqT796oRbx3/qVZ5576lgcsCozNCu0/9qAU0ZJJxvmhJlGWK3H+5dWW3nIyX45dn46asTslQuro5rV2WONX/rw+fmpCAAw3l+hGAaAotR5qUejs3uCUeynjQBAVmhKyQgnYKmMb3+bF7qKYS/NxoU01cvX7zlZnIlvrSVKW+9J9Ae9JBSl7mYKIYiCA7YSQwjNNIP1dgEAnhmm64JgFHKSjMEJ7VR6AjnYpb3+Iwbd51FAC2myQg/4jgCFnCplhjwwvvPfo6en8mFJUIziOOhxgrGu6IvGVGCU/He/9uxv/fLT/o0MA5rmulSGbt7nMKAEo9kdOGF+Knzfk0sfef+Z//IXn/QV97WQZUWPufJSe49TwCljeKgv7Xq7mO3rkHlyoV4qe/FGOwroTgUwO4ES/Mip6bevtTkbTsScaQQ//xPnemXiGO+bEzqp1NrulBS+C7wkeO0oLzQliA76mgSjSlkHbnkjY5Q0494tbkRMm63qYW8n+P9fmAnX2qVv41VlPRGCOcN5qb2HJxQHn40wUw/WOoVzzj+qZl34LINxxsl4C2+/T84DoV6Bjm8MXMFb/8YOBuwQBIKokWLIVlf6jIa81P27XVZoznAUMM+l1rpCGsGGOQEATszH5zZLhCPB0lwptcUJjZATgmca278JhOD/6e++9+MfPl8ZEnG01eknL3ucgBDEgiXZsO9otu9rT8zH1rrrK0m0c7LzLnjszIyvZR/alXzqe6VHOIDxLWYMAEkmtbEH044AnFLWOZeVygeV+08QDCttkkx957Xb9ZhXnBCHTGtbOeAqOwEAFmcia52Pf7F+TqCkkCbNe0GJ/S61wtx0mGRSadtKJALwHu5Q0HHGyaSFisRwQs6YQAgxSnzN5wAnCIoRQgiG7IRQUKmHx/i2k7JZE/WIa+uq0i0AyErNCIn6OUHqfndt/zKqq4eCpIWS2lbN3Z58aO4f/uc/fnppRzeJj0JU31APuTa955gXPU5ACEUhTfItTtDGtpOynxPmpyNKMEZoNJg9Dp44Ow0AnO5ms/XK6PsEQSrz77956dry9hm1GAC6mTLWHUgSCKO9ZppZoSgdlgTOiNT29z790vffWPnJZ080N+0ExgjGyHOCc66QpnoPFqYja92N1ZRRXEWsCelpR0mmvA6936VWWJqJ0lynuWp1y1rUcxeGgqZjNExPMrVtFc44wAg4w4xiMpiBHAbeGEKDkTUUCOons/Sf3E7KZixqIbNmoMq5KLXgWDDit2efpM1HtKMhRAHLCl0qWw0GIBg9dX5ufFGvxUzpHrdnm5wAAHE4wAlJJrV1/ZxACT4+FzO6TTB7HJw/0SQEcYZ3y4tDAxazc+6VC6t//KU3v/zC1e3PB4BOKglGtYhve8Yu8K0qfYuErOiV4fWfUItYwEkg6G//2rt+5n2nK7L2eZd+L1HaarMVcl+Yjqy1l291QkEr2xQjxBkulElyNbR97hdLs/HyRnblVnetnVeesTCgo2PjRpHm6mB7mAejpL9+wyMKKMYAQz8K+ZrdAe3IOzamG6IecWNtf1ZSqYxglPPesBJbccKukhAKaoxNMnkwfQ8AGhFXm9yebdoJAFALWbcvntBJpbFubrBD5uljdUbxwYaA1SN+fDYOBd3lBw61Vklz9Vev3NzoFkPZnxUoAHQzWXnu9wVGMWc4LbVzrii1H4TRf8LZY83//tffPdcMhzr7+bzLHquWuv/ljgIah/zq7e6zjy5UT8gH6ZQ2SSE5JWOms2+L00v188cb/+QvXs1LdXyu10BhsxLIbDs2pUKSy22DeuPAD54LBR2qSvGeRwQgBixmP33C9HNCKU2a6+PzcRwNVy8UUvtIuecE45w2e2eFRAEFBK2kZAe9n/Wopx1Z64pSx5s3Jw5YkqkqGOK7AcwOTlc5uVB751p72wz2PYEQ+viHzzd3iHt4EIwc9DjBOXfxRuftq62HT07trh3JWrxvQoCeJJCsUA4gl3o0XTkU9JGTU9P1YV8ERsAY9mUlWaFwn+qPEJqfDtc7pQ9VVh/x84zTTMUHsrEqzDSC3/zlH3v4VHOllVd9fH3XunayhyM1yfVoQs74wBh550z/wSjYxk4AAMGwta7fTkhzlZd6vhnWQmbMQJVzKY3gmDGsNjlhdHzwKELBECCt7YE5oRYxpW2htC+hjjY3+FrItHGVq9dzwsygS+r0Yp0elBMA4Ofef+b9Ty3tcgLBGBw4CwCgtH3xrZW5qfC5p5bWO0W2XWYNdc51M9UIDyYJhFOSFdpa10nVtj6HbR+GT5rtsWqhERpIPlmaid+62go47dcCOcPa2CRXcXhHIxF8/vY/+JVnnnl4/tzxXnupUFCCcTuRsyNToSoUUmtjD8wJACA4WZiOhtKWGCWCkyRHQ+FSX5nRn+XvE/Vmp8PR2k6vC3FKlLHGWJ89vku9oUcUEF87fmBJ8HtfKY1vqFptE3HIMEbtVPrpHt1UBpyEg9v/+55cCgU7ubhNX6NxsKde0IsnOAcAnVR+743lj37gzJmlBkZvXl3pPnZ6Zvh8Y12S9dJl9wuvHWW5evXi+oVrrcfOTI/5wU3tSPs6BIwG7MVjcxFGqCrC8PCtge5QU69ACf7wsyeqXBJ/LR9h2AntpMQIHYzNPc4fb/79X3rq5PywZ6YWsqG9AAAI6dW8V0fSXJXKTteDWsiMdf12go+jCYYxQkXp5+3ZXaxJjyhg3pO0U8PPPYE3dzQ/DyXus5gxQlUNZzuVUyN6QcDpjz+xuG0tx12B517fUOLSjTYl6PEzM8fnY4LRlZvbKEi4kNr3gTrYxTgjG93iX3z+tYdPTb3rkfkxP4g3Z0/5tnBDjtGl2ZhRHA76KzkjWtskV3fyLu4EX/CxbfVthU4qMYY70Y6igB2bq406/moRA4AhtZ5ghDAMaUe+P5e3KCo7oeq5xijBCHzL4aG84G3h+Q0BOrCdgDHiDJfSlFJbt9XeJg4ZxlAF1zpp2TyQ+n0nIBhhDH4rWW3ntYg3a7we8elGsG1rAuybFY+K7Djwb/Drlzfevtb+tZ95dHzNwU8T841bRrWjxdmIMTz0bZyRTe3o3kgC2UMS2on0THXXr14LOWfDbgCMEUZooJ6p0P40jBEjuJIEn6jHGeUMI4x80M0Yu2dWSBj4GfJwYO0II2CUlMqU0jjnokFOqDpcdFJZOdAPDb51jQ/StxIpGPFZnqcX677F4/D5oaCPnZ5+9PS4is0QBKeFND/13pOPjq0aAQBGEAW0lEYZt2kxb71hSzMRp2QoaOBbFSSZvJNdeScwigNGW7sOru2kEmMU3UF4eyfUIh7y4YAdwRjDoHZUKL4ZseEMV+1zklxhhATHvuw7K7WxdhxOYAT7gPeBtSNvYxTSFMo4B5XvKAoYJsjfT21smquDbbV3AoIxIcinvXWS0nf1A4Azx+rXV5PRsnVcC/nf/dgT508MN+keE9N1cXap8RsfeWw0nLkLEEJxwEpptDY+TaP/sdVj8fRDs0ORPu+Jz0tTO5Bxv+d66jHf6OxhJxCMwoOmPO2Cn3nfqb/3Nx8fOkgIQniLE7Sx3VTWIu5vFGOkaujSzSTGSDDKKcYY5bkuSkPwblEnD18Fj3atx9odPe1I6aLU1m35jghGjYi3u72O3KUyQ270QwAhnhMMALRTGW9WAp873iyl9mUe/bjT/fW9Tyw+cmpqF5fLtvD+xFIZZazPre/fEQNO/ttffdeQ3sxZr0NrfA84AQBm6uLKDp5mj05aBpzeSShjJzx8cmp0cAbBCCPwXVMRQlKZbraV1s4pqXxHaa4wRoIRzjBGKC+VtpbRsTxCtZB1U3lwOwH1JvH4abD9qmMj5t5OyAotlT18ScAYEYKksg5cN5NV8+0zSw2l3e31bGl2oND3Tp/rVE2cXhoeBLT3KhGKhOcEV+WrVEAIRQEb6oHDGfExqXthJwDA0lx87XayS9ejdiob8R2FMvYF37uqaqwmle1kshmLLe1oixMUxkhw4tuuZaXJS00p2aUbQ4VaxBBCB/cdYRQJWkqT5IriAdlrxMLHZ7JCyyPhBIwIRkobcNBNt1yO89Mho7i/nN3jXvmwdocPJEnPCYUKx3AHVTblXfGijuL4XC3JVWtnR2onkfX48JTdakCyF06pTZKperzFCWWfnUAQ4p4TMMpLvZn5srfOE4f8Di3mOGSlMkkmhyqQKk7opKXSZqeah3uHqoO1A+hmZRWGYpTMT4fL940kIM6IA9DaZsVYIYJKEqLonkjCifkYAG6u7tjFpJPKRnxPLr0t/HiUasCeT++pkmJ8lbPvX5Rk0je28BZzXuq08BVFez/cXru4O+OEQppupsLBNguNmG8kJQAsr+dxyO+RTrvr2vykG2uMTTIV95mXJ+ZiPxdh4PxDXl8Fz8jK2LzU4yR4corpvbQTlmZjjNEuXUzaSVmPDo8TOCN+W/V+QKlM/zAeP13G00WSKUKwT/qiBGWFynJN6VicUAspAjiwnYAQCgNWSu2ny/X/qVHjUpk0V7fXs7mp4MDCdmD4NgVKmVZSYoz6X5sTC/V2KtPBnMujkwSCwXNCqaMxnPRbdsK90Y4CQRemwxs7cIK1LslVff/pugcGpbgWbY0fVtpau2WShoKozZztJJe+agIh5GcqZ6UazQveFs2a8P6fgy0SI+S94UmuhvKmmjF3DlY28uVWdmqhfrCS1zuBtxOktq1u6btnV386tVjPCjUUPjpszqrgn5M2Nt+uu+MoCEZ+3Pc9spgB4OxSYydJyKXWxh6mdoQ3Hc3efeTzPatOMCGnG51SGRsAdPuqJgQneaF9A/rdixM8nnl4TmkbHLRDgm/roow1uRpqs9CIhXPu9nq63i7e98TivfC57Q5CECFIabvRLTAakITjc3EpTatb9rduOVpOcKXUpTLjJFD4GkufbnCPlnTuROP2etY/V7dCkknnoHGIFjMAxCGTymptHUAnLTnD1dsWBlRu5mwnmax4MuDUj4EKRkJ12+LUYv0XP3R+zFbVo/CNfJyDJJPBoNbarHHn4NZaqrSdbYaH5XLbAsaYYCy1WW8XfoJt9Sc/XWEo9fgo7QQEqJsp68ZN5gk4iQOG71nO1tljzULq9c42keY01865+iFyAgD4Cn3f76zVLaOABVvaEVObtZ1JrqJ+Tih12VcDuDvuxFz28DZGNxvWjjwnXF9JCEGN7cby3mtgBBQjre1Gt8RkIHWSEhyFrDM47uTIJIERzBluJaUZO9U5FDS+N44jjzNLDaXsWms4+ggASS6dg8Yh2gkA4Kvdk0w6CxvdMgrolnbUbydkW00BA07yQuel2W87rQPDz5/34dH+47WQWedeeWd9fjpqHHr6HfjMdoq1sevdshGJ/pAXIagWsnZS9ruPjsxOoAQJRjY6hbFuTE44c6yRjVFtfGAszEQI9RqPDiHNlQN3gALXO0EU0DCga+3cOtfqFqGgQ74jb0wnhYz6tKO8VA7cvdMhh0AJVsaUUg95UQnBcUBvrCR/7Zlj98602x2MYG1cq1M0B4sOKMHT9aCTStnX+fzoOIESwel6pzTGjikJ739y6Tc++ti9XBKebgSjGSkAsNYuDlx+fmDUQhYJutrKnYNOqmoRr4zggBNtrNLWGJv2VdIJTrLSFNLcSdODfYFRjABp40aNvWZdCE6WZuLDN5c9fLvs9U45lP9HCZqfCtup7B+McpR2guBko1sY68bsXxQIeq9t1vlm6Ac4DB2/fLNzdqk+jjfmLiIKWCDIaruwzvtwt3I9fA2oMnZ5I7PWLWx2bQs4yUtVSH2YnFB18hz6UzMWccgWZvbdM+VugVJsjG11i6GccILx7FTQSWR/tdMR2glIcLLRKcx228lRYWE2aidyqF17Kc3l290nz88estlHCW5EotUtnXNpLvujGb6/ldbWd2o4u1mGGnCal8YYd2DH6H7BKPYNq0eDQs2aqIVsYf+9Fe8WKEFa21ZSTg1KAsaoHnGpTX9XhKP0ogpGNrqltvbATYTuOo7PxUkm24N9nm+sJmmmnj6/2yjie4RGjfteqHmpa33eAt99Sxv7zvV2s8bnNnOB/fbsky8OZ4WUYF+ZPfoQTy7Uj83Fs83DzjiqQAlup9JYNzVSJ+QZrOjjhCN7BX0icSE1ArSvqSr3FMfm4iRXnUT272TXlhPr3IFLOO4EUzXRSspWt0QIDXACQRghqeyF6+2nzs/iPvsBAAhGB2vofQAwij3/jNYw/cJPnE1zdeDihzsHJbiTSudgtE7IFwLkpa5a0RwZJyCEBKeU4EDs0aDqMNGMhXPQ72l2zl1fTuamwkPTNwbWU+NZoW+sJH4GfXWcYIQRaiXF8nr2xNktsvLOUz8C73BWSDcHSozaCVP14MTO8zcOAZRgn5rVHGlYEQkaCtrqlpVJeGSSAJtNNsdJOjo0BIIGnNxaz6reaXmpb6+npxfrZLw58ncXzVhghN64ssEpHtSOMMJwbTnJS/3kua2GJcGWdnRYdgLBghMEsO3Ir6MFJchvsqNV1KGgzZivbGRVu8ijlISAEUbwnTS+vutoxPyxM9OvXlyrqtE3uuVKq3joZPPe9SPZBc2aoBT/8J01PsQJBCFAl292jYWH+tQ2rxSRO2uivC94HyDbrCi8r0Ap9kXF20pCoyZWWlt+wqPmBIqjO+vkdXcRcPL0Q7PXl5MbK7389fV27vtGHn7mDAA064IR/Pb1diPi/V55ghFj+NLNzrG5qP8VDCrt6LAkwTfsiQO2r0L2w4EffV2VNw38ieJmzNdaRVXZf6SSwAij95d2hBA6e6w51wxffGvFGOecW20XAae16PDqNvsRCRoG1Gg3ZPMRjPxwoJMLAz3kvACMWZxwtyCYvz+HdsFx4TviTG/XYAYh1KjxdlreF9pRz064b1yoHtON4IlzM9957XYutVTm5moy2wzuRUONcYAxmm0ECMFQb1lMekOuzh8f8Gh5Tti9ifRdhw8aHHLYcRz4UQ87NZhpxryTSrtJCkf5Fgru7YT7SxIIRs88Mv+V71z99g9vCYa/89ryc08tHlXmDADMNAOM0fRgRbznBIx64/cqeDvhkDeX9z6x+NiZ6UNOyhoHjCCM0U4DFBuxMNa1U+kLO49UEhilFN8/AeYK5483Hzo59X/+yYuU4MfPTL/38aXDLz6sMD8VIgRDjaZ9xGBuKmwOpp8wijE+4KCaA6MR8yPJNt0ThGKM0E6dTps1Lhi5vpz44QFHzwn3m3YEABijT/z0I4+fnX76/OyJ+frRhjvmp8PRx0kJDjg5uVAb8l0ihCJB7sNbeiSgBGM8rFhWaMQi4KTq4XCUtywKaD3mu498PiqcXqrvMm7sMHH+xNQHf+z44mCbKkrwE2dnTszXRtW28yea1YSUBxy72wmhoO96ZL7SndBo3uWhwVj35uX1+eno/hSG+wTOuXYqRzNn/KhmjNGQU+vtqxtT9WBySwGgnZSf+txrv/Ch82cHran+EzgjvZ7hRygJE0xwT+Gcywo9pidtIgkTTABwtPGECSa4fzCRhAkmAJhIwgQTeEwkYYIJACaSMMEEHhNJmGACgIkkTDCBx0QSJpgAYCIJE0zgMZGECSYAmEjCBBN4TCRhggkAJpIwwQQeE0mYYAIAgP8Pheerqtx1c90AAAAASUVORK5CYII=;imageBorder=default;strokeWidth=0.251;" vertex="1" parent="1">
          <mxGeometry x="520" y="70" width="210" height="140" as="geometry" />
        </mxCell>
        <mxCell id="q82MvRItSnuRYg2Ndtge-14" value="25% Perturbation" style="shape=image;verticalLabelPosition=bottom;labelBackgroundColor=default;verticalAlign=top;imageAspect=0;image=data:image/png,iVBORw0KGgoAAAANSUhEUgAAAQEAAABdCAIAAAAqtUSSAAAACXBIWXMAAA7EAAAOxAGVKw4bAAAgAElEQVR4nO2dd5Ac153f3+scJufZmc2LDcAusARAJBJMIiQGiSdRgbTqJLkknS1ZPpfr/lGVr+xyucp/2P7jQt3p7up0Ot9ZJ/GUKIoixSBGEIkAibBYLBa7i82T80zn8PzHgBCITTM7PbtQYT5/AZie7oee/vZ77xchQgi0aHEXg233AFq02GZaGmhxt9PSQIu7nZYGWtzttDTQ4m6npYEWv09URDWdF609Z0sDLX6fOHkp9g8vjlt7zs1roFCRZVW3cCgtWqyPqhkXpzMnL8XyJdnC025SA6qm/5fvnXz9zLyFQ2nRYn3SBSldkBACF66lLTztJjVw9koylq4ksmLLzdxia0AIpfOiphleB/PhtZSFZyY28R3TRC+fmkMAFCqKqhk0tZmTtGhRF6aJ4hnB62Q7w44L19K6YRK4NbvZzZxlOV25cj27Z4evLKolUbVkHJZgmnfWpJQtSldms7Lye7Nr0g3z0lT6TruNVURFn14q9EScB3aGskU5lq5YdebNaODsRIIksE/f11MRtZJwp2jg+nLxu391PFOUtnsgNzBNNDaT/eufXpxLlLZ7LLXy4dXUX/zr+fk7csCCpC2nhY6QfaTPBwCYnM9bdeZaNWCaKFeSK6IqytqHV1OP7O8IeFjTROU7RgPTS4WldOUXb02Zd8YWRdPNpWRpIVmemM1purndw6mJq3NZQdaXrXvFWkihokiyFnBzdo7qjTqvzues2ovWpAGE0IVrqf/6dye/9/NLv3xnJpUTP3mwgyYJhsLvkHkAIbScKpM49s6HS4mssN3DAQAATTdiGcHOkecmkuU7acW4FgihawsFTTdi6TviBt7GxGzO7WD8bhYAcE+//3qspGiGJWeuSQMXp9J/9dOLg53ukId7/0oi5OW72pwUiXEMWSgrd8J7V5S1RE48NBy2c9Rrp+fvhBWtqpuZgnxkpE2QtInZ7HYPZ2NkVZ9PliEAsXTlTjD3lUVVN27Mn6KsnZ1IRAM2J08DAPYPBcuCupSyZr7a2KSzmCz/8JWrfe2urz6xkyLxh/ZFCRzDIKRI3GWnCxVFuwNMQ9minC8pD94Tjfhtb324+Il0pT1o394hSbImyNr+nUHdNF87M3/fnsj2jmdD4hlBVvSd3d5cWZYUnWPIbRyMqhn/+5/P3jMQ+NShLhyDf/PzS4WyemR3G4ZBAEBf1AUBWEiU+qKuxq+1wbOrasYrp+ZME/3nZ++p3pSOkKP6EUXgfjebzImyuv0ayBRlVTfCPn641/vqmflzE8lowAYh3MYhLSQqNIm3+W2Hh8N/+ZMLV+ey/R1uDFtl4jVMNLtcnF7K50vKg/uibT7b1o8WALCQKBsmenh/+4vHrxfKyvZq4MK19KWZ7PRSMZ4RChXlg6up//7NQ4OdnuqnFImHffxComzJtdZ7dhFCS6ny1GLh2WP9K+8ISWAeBzM5n5dV3QloS0azORBC2YLEMyTHkCxNHtoVmlrMlwTVadvOUc0s5x085XOyQQ/bGbb/j384g0E42OX56hND7UH7TX3quvl3z1969/wyTeGirHeEHWEvv2XqXU6XP7iSfOK+boLA5xPlsI/v73DLql4oK23+7ZEiAAAh9MbZheEe7xP3dT332mSxov63bxzavcN/8wAIYSRgSxckVTMoEm/wcutpwDTR1GIBx2FXm3PlpxgGnTytqIasWLM12TSqbiZyos/FsDSO47C33TUxnytUlO3WQDHg5lgahxB+9yv3zsVLyZz41geLb51bfOaTAwxFAAAQQmeuxM9OJL/9+d3dbc4fv3ZVkDQTIXyrNPDSibm3P1jqibqGuj0LiVJ/h5ulCRtL5spWBuTUS76snLua+sZTu46MtEV8dt0w+9pvX/N0hBynLsUKFSXg5hq83HoaqEja2Eymv93l5KlVD+A5UjdMSdERQtu48BAkLZEROsMOhiIgAF4Ho+lmqbKdphjDNBeTlb39geptcdroPTv8hmFiELz43uyhkfBApwcAkMqJr59e2DcYPDoaqUgax5CCpJkmssgBugEmQuPXM5Kinb+WDnn5fFnZPxQkCcxpo/Ml2TRRdfG99ZyfTCHT3D8YhBB2tTlWPSbq5yuiVixboIH1bna6IC4my4NdnrWmGxtLYhjcdsOfIGn5shz0ciSBQQg5hiBwrFhRttG4kcqLkqJHAh/bl+M4tn9nyOdinn97GiGkG+apy/GioDx1tAfHMZLAWJqoSJq5Vb6EXElO5sThXt+1hfz49awoazs63CSOBT1cpihbZXmsFxOhM+OJXT0+n4td5zCnjQYQFCpK41dcTwPnJlIuG7Oj3b3WO97GkjaWTOWk7TWPCpKmaIbHzlTHyTGknSNzJdnYPgvp1EKBwLFo8PYltZOnPnWwa2wm+08vXfnz5z58/u3ph/ZF2/w8AIDAMZYmqmuhrRnk9eWipptffGRHoaKcGotBCENeniCwNp8tnRelbQrxSGSF+UTpkXvb15+FaIpgaaK5GtB089Sl2M5uj9fJrHWMjaOcNjqeFbbSHo8+ovpX00TxrMBQhMdxY5wcQwQ8XDwrKOq2bVSuzuedNsrnvP1NBiHcPxQ4MhI+O5EUJf2Ln+h/cG87SeAAAALHOKY6D2zRzby2kPc62N6oqzvsOHc15XEwBA5xDPrdbKGsiLK2NcO4FYTQ5ZmMaaJDw6H1j6Qp3Gmjs0XZMBqdN9fcD8zFi2VR293nW2ehz1C4w0YlMsKWTd+guoqdyWq62dfusvPUfKJ09koi4OZcdvqjURF+F3t5JquoBs9ug4EPIXRtId8Xda36JsMw7JufHdE0g2fJW+8thIChcEXRt0YDumHOxUpD3R6WJkb6fKfG4hG/DcMghNDGUZqOJFmviGoyJ7YH7Y3bXmoeFZpaKOxod7P0Bj8cTeIBD5spSIpmcI3tn9bUwKWpDM+S7aH1PE0QQp+TvTyT3cq1kKoa//jrK2VR3dXjjQRs5ydTEICnH25nmRv/FwyDHgdTFlVZ257ZfHqpsJSqPH6oa60DaBKnVzxVEEKaIlTN3JqbmS/JmYJ0aDiEYbA34upuc/REnDgGAQA2loQQnBiLFcpKPCM8e2zgnoHAFgwJAFCsKKmCtH8wuOGRFIn5XdxCPKloRoOujDUFdGk6E/Hb+I3O3ubjy6JqbW7b+iSyYkVSjx3sMEzzrXOLu/t8/+ELe0Z3BLBb3qluO6OohiRvgwYyBelnb071d7gObDSbr4SmcEVr7jxwZjzx0zeuabq5nK6IsjbU7QUARAO2b39+z6HhUPUe2jjSwVOvn1lQNQMA8N7FZb3h9UaNZItSsaJ0r2aLvw0MQredFhVNbXjFu/o8oBvm5ZnMlx8b3NDi2RFycDR5aTq9ZS6VM1cSThv95JFuG7e6xRYA4HEwLE0sp4VeK3zptaOo+ssnZ+dipf/1x0ftaw9vLRiKUDSzqVv5n71xbSlVcfCUppt2nq5uoigSv/Wxc9noZ4/1UxQRDdhOX44/99rkXNyaqIQNSRckEsfcjo0dOxBCp43SdFPWDADAOx8sFUXliSPdm0isWV0D8/GSqpv9KxwTK/E4mYCbvTiVeexwd73X3gQmQucmkj0R5zoCAAC47LTDRs0nigBETIQkWRdlTVIMv4thmxYCYCI0NpM9PRb/8qcGHfULAABAU7iqG82bB8qiem0h3xl2vHZmgcBhm5/HV9uxQAj72t3VPw92umkSH7+e7WlzNttdYJgoU5AcPMVQNW0/7BxNEXi+JNtY6vsvXrYxpN/FHtgVwlcLSFmH1Y+eWiyQBLaqe/j270PY3+m+OpdTt8ScnClIC4nSSK9v/cM4hvA6mKVkBQAwMZv7l1cm/vInF/70b0+cGos3b2y6bs7Gih0hx3Cvd3OPC03iCKHmVeuYWsgjBL7x1LDXyVydz/e2OVfVwK3wDDXa75+YzW1BkLyk6ImsGPbxLF1T+JmdJ512ei5e+tGrEw6e6o44fvv+wiZy3NfUQEfQbqvNqDLY6S6L2tYkH52fTOMYNtTtWf8wCGHQyyeywvvj8X/89XiupBweDvuczMXpTPPGZpgoV5LdDnrTWzSGwkmiiSkZV+fzAQ+3s9vz2Qd779/TNtDp3lCrFInt6vGl82IiJzTb5yhIWjIntvlsKw0Gq2JjSZeNPnkp/s6Hy08/1Pf5R3bIqvH6mXndaFgDqmbMxop7+v01hj/0RlwsjV+8lgYATC8Vnnt9snlzwvvj8f4Ot9expsviJm0+viSof/mTC/3trm9/fvdjR7qGuj3Ti4UmDQwAYBhmvqQ4OKrGn3AlNIVTBNYkDWi6OTmfu3dnkCTw/g73v//cyMognJVACDtC9rCPP3Ex1uydsSBpgqT53GyNsyiBYz4Xez1W7Gt33T8a6Qo5Hj3QcWosninUV4huFQ0kskJZVPf0+Vd+tCoMTQx1ecZmsoKk/fq96z9+9WqTXIyFsjKzXDywK1SLODuCDprCH723448+O+K00RiE7QH7YqqsNM1gqpuoIql2ntr0upmhCJLAi4IFvs+VJLJCrqTcuzMEACBwzMHTJIHXcifddvrgcPjNc4tvnltsxsCqIIRKgmIYpttO1/jyhRD6XSxFYN96ejdN4jiO9be7KBJfTNaXW7PKwmspVdF1c6DTXftZRgf8z71+7c1zi2PTGQhhPCs0I2ZzYi6nG+b+oZps1UEv9+d/8hBzS2JDNGhHCMRSQndk433OJjAMU1J0+xrxhbVAkzhJYE2K9ltIllXN2LXRMnIlEMIjI+F4Vvi/L12hSfy+PRGSsD6mzzTRfKLsdjBu+8aT/E32DwWCnoNd4RtxdU47zVD4UrpyoJ5L3/6fQQgtJss+F1uXh3VPn78iai+dmB3q9gbc3LJFSW63MbNU8LnY2uMEmY9n9kT9NgjAYsqaxIuVqJopq8YmTKI3oUicIpuyFjIRWkiUgx5uc9lOOI599oHexw93/fCVibHm7KkME83HSz4X46jnJcKz1GCX9+ZfOZq0c1S9j9/tGlA1Yzld6V4jYHUtwj7e72KdNuqzD/R6XYxViZ63Ypgolqn0tDk3HaTttNEeJ21V8tFKciUZx2BdP+FtYBjkGbIZGhBEbTldacTGT5H4M4/2D3Z6Xj0914zVmmGipXQl5OUbmWQwDAY8XL11MW6/3tRiYTZW2rOj1s3AR9fGvv6ZXf/m2EB3m8PjYOIZ6wsTlEW1WFFvZnJuAgyDPW2upabNA8mcwNJEI/MAAIBnyWbEomeKUion9Hc05OeiKeIzD/QuJsuXZywuEWCa5qmxWKEkh32N5tAF3Ww8U19NgI/NjJKiH7+4HPJwO7u9a31hLQ4Oh6t/8Lu581eT9X59Q/IlWZC0rnBDmfK9Udf743FdN4kmrGhTOYmhiEbmAQAAz5IVyXoNpHKSaYKAh2/wPO0B20Cn59yV5Eivr8H/6U3m4sXvv3B5bCZ77EDH8Eaenw0JeLiKqFUkrfaX0ccehZmlwvhM9tEDHU775ne0ARebzEuW29GyRVnTzZC3oV+xN+KUVSNdsKYWHUJIkLSbyTqpnMgzRI0+zrWwsWRZtDhoWdWM+UTJ52KdtkafWpYm7h9tm40VZ5YKlrgLyqL6o1cnJVn/n9868p0v7NkwPm1DAh4Ow2BdNaZ+pwFZ1X/+1tTuPt+uHi/WwHwU9HCabmatrnmYLUp2nty06b1KX7tT1Yxkzpqlmqabb55b/PmbU6KsAwDSRdHrYhucym3cjXRKS0ZYpSxq1xbyfVFn429uCGFvxNUZdpwZT1iSR14RVUHSnnqgZ7h3vSj92gm6OQyDda3Gf6eBsenMYrLy4N72BmPu/W4Wg8DaLYFpomxRdtnoBtcwHgdDU0Qqb40+dcO8vly8MpcrCQoAIFOQPTU479aHZ0nDQNbmrxQrSqYodYTslhRqdtiogU73bKxoSUyHqOiSotdlD10fG0fZeWqT88C755dDXq43snnDSxWfi61XiBuiqEauJAc8DRkNAAAYhvlcbCpnTUMr3UD5shxLV0qCqupGsaJYogEMg0UrUgRvMr2U52giErBb8qLFIAy4uYqoylak6Umybprm+hGQdYFhsM3HJ7J1/MQ3HilNN05fjo/0+RrfLHIM6bHT8XoGsSGSoudKcpuPJxt+k4U8XLogmVZkvhmmmSvJZVFbTleSWRFCWEsQx/pUyxQULHWTnZ9Mh318yNto/YWb+F0sRRJLSQssbJKiEwRmrdMtGrAn6lnu3rh2NfNwn0XpQtGg3draxaKiCZLmczKNh++2B+0lQbVk32kYSNfNkIebmMsvJss4Bj1r517XiI2lMAgL1pX3kWRtZqkw1OWpN6J4HXwu1sFTU0sWBF+Jsk4RuLUaaA/YihVVkGr9iW9c+8K1tN/NdoY3b32/lTafLZWzMtG+GoBk46jGZ/NowFYWVUtKxkuKDiEc6HTPxYqLqQpBYG6L1kKWlEuocmEqjQAY6Kgj8mVDOIbwuZi5eKORwgghUdZIArOqo0yVaNCuakauVOuuDwMAyIp+ZS53cDhULXDQOJEAXxE1q3w9CKFSRSUJzJIEeY+TMQyzXPNLYh1yRZkksYFOT1nUxq9nnDUnf6wDTeI0iRXLimGYy+lKrig1aII8fiHW5uPDltYwhRBG/bb5eKnB15yJkCBrLE0QuJXZORE/r+lmtljrXIoBABaS5VxRut+6wsgRn103UM6iJONq9RSXja4xn2F9aAqnSVywwg+VyosMRQx0uVkavzyTDXq4xqcpDIN2jipU1GRe/P4LY6fHE0ad0fC3Ypjm+cnUYJfHcp9gJGivSFq+3NB8pemmIGl2nrZ2HnDZGJLAcrVrACE0OZ+jSHyoq+6IwrWIBnnDNNMWmSBNhBZTZY+TsXFWaIDEGZooCWrjLp5kTmRpoiNoD3t53TBDDXthqzhtdKYknbwUPzeRSuYEzdi8+WUhUa5I2s76Y0U3pD1oI3A4s9zQlkDVzLKoOXjKWg1UC4tkateAppszS8WBzjWLyW0CB08zFG5VazDDRKmc6HEwltwpksDddqZQVhr3ZKcLko0laRIf7PbgGBawyPDitFFLycpv31/wOpliRdX0zWt1cj5PElhPxPp0eL+L41lqprFtsaYbFVF18JTl05TXyeRK8s3XnKoZ+bK81soNk1WDZYgDO+suBLIOEEK/m8tYFJJQbYXmdTbqgq1CkZjPxaQLkqo1qoFsUfI4aAjhrm5vyMN1WWRRcPB0IiP4XMzR0citvVg2weRCvivsaDCMb1UIHOsK22eWio2cRNNNUdZtLLlhWnO9BNxcOi8WBRUAgBB65/zSL9+eXsvrgvEM8en7e0b76wsU3RC/i42lBUsSykqCKitG4+6nKhSBe5xsriireqMunmxRrhqCOkKOb31+d49FqTluO02S2ONHujtDdkU1Nt3PT1b1+XjJ8l/2Jr1R11KqrDTgLVY1UzcQSxOWFy3fs8OfKcgnLsYU1bg8k/mXV65emEqn8qv7rDAcxyJ+m+VNRx7Z3z65kH/l1Fwj96jKXLxEkfg6ZU/rAkLgtFEVSWsw6VnVjMJHjmGSwPbs8DMWNeM5Ohr57lf2H9wV4llK1Ux9sxpIZsWSoO4bbFaJuP52lyDrdXlkb0PTDcM0mdqqSNTFrh7vowc7fnV85vX35//iXy+EvDyOYWtZnJtV6H73Dv9Xnxj61bszb36w2ODKe3a5yDGEVSElEEIbSymq3uBaKF2QMAitmp1uxe1gDuwKV0vwqrqhbfbuLaUrhmn2d1i/Ia7SE3HphrnpfAyEkKqbpokaNyivhCLxR/a17x0I/ODFcQyC//SlUZ4h1yrH36w+YgSOHdndli/JP/nttaEubyNr5dl40e9iaevulI0ldQPV7kdclURGwDHobiDIfEN4hoAAbM6MixCKpSvRgL0Zub9VeJZs8/ETc/kDuzbpWZIUHcDbU16tgmfJpx/qYyjivt1t1ZpruZKiG4gkbl93NbHhCU3in7i3I+jhj59f3vRJEELz8XLE0kKONpbkGKLBCOpETiBwCxzD68AxJEsTtft6bkVWjXhG6KkzJ7ZePnWo6/L1zOZ2xgiBUkVhKIKhm1XU2u/mvvbkzr52F4FjATeXLUjyahvU5jb9cfDUrh7P8YvL2mYX3yVBzZXklc0sGsHGkTaOWroloskwzV+/d/319+drP0k8I9g5ssaKaJuDZ0mWJuo1r52+HH/vwvLscjGVFwet8/msyoGdQZ+LPXEptolJ1UQoV1J4hmSb39SUwLGAm80U5VWNNM29PIRw/1DwV+9evzKfq71g0a0sJssAgIjfymbDDE04eCr50WYOIXTyUvynb0wxNP7ovR3r2CgQQiVBhQA4bHQiK/rdFjiG14FjiHrnAcMwv/ezi6pukjiGYdDaEImVOHj6oXsiP3lj6vBIeKjLU9fdQAgUKgrLEM3YE98GhMBlpyVFX1UDTW/+1t/u9rmYExdim/PLzsZLOI61+axxwVbBIPQ62WpGJUJocj7//NvTbgcdSwvrv3TLovp/fnju71+4nC/JyZwQ8FgWjbwqJIHbOCpfTwxpIifky8pXHx/69P3dD++LNnW7AgDAMDjY5Q37+JOXYvWmEyCECmWZo1dpxWA5EEI7Rxkf9Y+87dOmawDHsQf3tl+YSm0uXHk+UQp7OctfFT4nkyvKpoliGeEXb00HPNx3vrAHw+DVudw637q+XJqLlcZmMm9/uJTKS8EmawAA4OSpukqtzMZKEIJ7d4WeOTbwbz+9awu603qdzD39gSuzuXp9QSZCgqTbuM2X5asLO0/hOCysFuC0FU1AH7wnIivG2HS63i+aCM3FSrWUxawXv5tVNGMxVX7utauKpj/zaH9vxBUN2MZn19SAYaJfHZ85OBx66mjvq6fnJVnfCg3Y6Lpyyq4vF71OtvFUntqBEIa8nKoZ9WoAISDUU/2hQRw85bIxy+nKyvYOW6GBoJfvDNkvTqXrzd4SRC1XlHtqKAFfLz4nSxH43/7i0mys9KVH+ztDDgyDo/3+6aXCWr6zK7PZmaXC0dHIsQMd1bXvlmiAKotajQ4WhNBsrDjQsXE1aWtx2miCwDa0sxmGeaueEUKCrFkSC1wLNpZ02qjldGVl1NBWaACD8OBweCFRzhTqM/MlcoKqG80oD+p1sRSJXZnNfe3JnYNdN9oF7BsIFCtKfLV0bITQz96Yivhtu3q8No78w8cHv/X0SDTQ9NY7DhsNAaix1VVF0tJ5qdm2oJW47DTHkOsXF0QI/eDF8T/9mxOvnp6rGig13ZQU3ZJY4FogcMzrZLLFVSLnmr4lrzLa73/5xOxCslzLPrJar8HtYJaSFcNAXQ3UllsLlibuH40E3ey9twQL7ur16bo5Hy91fvyKCKGJudyV2eyffHlf1RnkdbKPH9mKvjtOniIILJUXPU72+lKBILDqlLXqwYmsICn6zi4rU8ZqwcHTPEuuU+XTMM2XT8y+enp+qNv9Ty9deX888eDeKIZBAocWZtOvT7V/ZH61rtVbpAE7R/nd7Fy8tHcgsPInRAiZJqo2BgUAnB6L//XPLgbcrGEir5Ntku3s2WMDt/0LTeLRgH02Vjo6im418wmS9sK7MwMd7nt3btwv0VqcNpoksGRW9DrZf/7NhNNG/dEfjKy1042lBQBALd2DrAXHYNDNzsdXD5rQdOO9C8vPvz39h48NPnl/9+R8/rdnF146MSuremfYsZVbF7+blVW9UJFvJiRWbURbpAGGInqjroVESZBX2QZli/LxC8v7BgPtQXuuJD/3+uTR0chAp3tiNrdlrf6q9EWd8Ywgyvqtt+mDq6nFZPk7X9hjbapHLfAsyZB4MifaeWpqMe9xsKKsr6mBTMXvZresl/CtBDzcmfEEQmili2ApVXn55NzD+9s/fbSHwLHhXl9/h7tYUUqCSuCYd0Ub8+bhdbEMTcwul6ruJhOhU5fiQQ+7RT8qSWJ9UVcyJ1Z3RXPx4gvvztwsrHn2SuJHr1597rXJeEb45Tszoqw//XDfI/vbv/bkzscOd27NCKsMdHmyRSl9SyOTdEE6cSk2usO/o32r1xgAAALHXHYmlqmcnUh6HCxCKL1GkxVNN5M50dqgktoJuDlB0oqrlYSZi5cMEx070HnzDUKRuN/N9UZdneE113XNoGoxOztxoxhurii/8O7MUqqyRRqAAAQ8nGmifEk2TfSDF8dfPjk7OZ+vfvrexVhPxJktyX/24w9fOzP/zLH+am6unacsD+pen7CP1w2UzN3wlBkmujyTSebEB/e2Ny/4bH28LmY2VhqbSj+8Nxr28RNrWG9LFaVQUqzK46mXgIfDMawaQ7qYLP3iramKqIJqLnhG8DoZS+ohNAhFYKP9gbNXEtXIjpnlQrGiDPf6tkoDEPqcbNjHT8zmXz45OzGbQwhcnsmompHICteXi597qO8rjw+ZCAx2ej55sLOpMQjr4OAov5udWsgrqgEAyBWltz9YOrgz2BW2pkjbJvA52flEmWXIB/ZGogHb+PXsrZ7OaviGKGvpolQU1Fq6WzeDoJsjCWwuXjIROj+Z/vFrk7OxIgBAkLV4Ruhuc27LCu02IISHRsIIgfcuLmu6MTmX74u67Hzzw5Vu4uCpjqDj/SvxpXTlscOdYa/t1OV4MieeHou77PTObo+do/74S6N2ltyupw0AYOepPX2+U5fjmaLU5uOnl4plUR0dCGyufYsleJ0MjsHhHm/AzfVGXCcuxgRJu2lOKVSUP/vxea+T5hkSIeRqvmN4VTiGcDvohUS5IqrXY0VVM89OJEf6/BVRyxSlg8Oh7ZpFbyPgZnf1eo9fWB7s9FyPFY+ORkgLa49tCIbBzrA9mZP8Lu7ph3fs6HApmjG5kD91OX5Pv9/B0xDCrrDD69q6TdJKCBzra3cpqjEfL5kIvXlusSfi2q4FRpXOkKMz7HjgngiEsDfqxDFsbOZ33ZDe+XDp2rVPm8cAAAMQSURBVEKewLBL05mgl+OY7dEqhDAasC8ky+m8lMiInWH7xWtpw0TVfGivk22kkrmFQAg/ebBzLl46fTlekbSeNieEW2UXqtIbdR4eDh0eCbvtDElgXSH7r9+7vpgo/7vPjWzlMNYnGrC3B+3nJpIeJzMbK37zD4abGiC9IZ1hx3/84mhXmwMAEPLwAQ97eix+eKQNAJAryscvxD6xv/3LnxqMZwWKwBz89swDAIBowPbhZGopVQEAPXhP9Pl3pufjpWRO5Giy8b4HFrK7z8cz5G9Oze3q8XpdDIRwS2cot535+lPDIzv8AACeIXf1+vIlOeDl+rfD5LIWHEOM9Pkuz2T+38sTfje7dyCwjWszAABF4jvaXVWjCkFgwz3e0+OJavTE6fF4riQ9e2yAZ8m+qKsj5GhGf50a6QjaBVE7fmE5GrQ/uDfKUsTxC8vTi4Wwl3Nv0wptVRiKOLI7XJG0/g531Uy/pbcMQkiReHVahBAOdXp6Iq6H97ZvcXzL+kAIh3t8dp66NJ355IHOO2Ezdyu7d/g13fzt+wvLqfK5ieThkbZGusFaSDRg1wxzfDbbFXZ4nczuHb5TY7HZWDHk47cgQ6Aujo5Ghzo9NxMetnNwfjf79c/ssqpghIX4XMz+oSAOsYPDVpZdsoQd7a6njvb85uTsK6fmVM145tH+7R7RDQJuliQwt53piTghhAd2hl47s6Ab6Alvo232LKcr7PjuV/ffNLtvpwYghO1BKxPErAJC+NjhrvtG2rbYO1ELJIF/7cmdo/3+k5fiHgezXU6xlZAkHvHbfC62I2gHAOzs8fIMSZF4uLEWcs0Awz4Wp3RnTVJ3Dm57fQ3TtxII4Z4d/h3tbgjB9u7Xb+PZY/00iVfdYTaW3DcUKFQUC3t/NAloSXfBFi0AAIaJIAA3d3clQRFkPWRFOe6m0tJAi7udO8J716LFNtLSQIu7nZYGWtzttDTQ4m6npYEWdzstDbS422lpoMXdTksDLe52WhpocbfT0kCLu52WBlrc7bQ00OJup6WBFnc7LQ20uNv5/+ibBJRnsHtnAAAAAElFTkSuQmCC;imageBorder=default;strokeWidth=0.25;" vertex="1" parent="1">
          <mxGeometry x="520" y="430" width="210" height="140" as="geometry" />
        </mxCell>
        <mxCell id="q82MvRItSnuRYg2Ndtge-15" value="50% Perturbation" style="shape=image;verticalLabelPosition=bottom;labelBackgroundColor=default;verticalAlign=top;imageAspect=0;image=data:image/png,iVBORw0KGgoAAAANSUhEUgAAAQUAAABlCAIAAADLd2EoAAAACXBIWXMAAA7EAAAOxAGVKw4bAAAgAElEQVR4nO2dZ5Bd133YT7m9vF63LxYLAiBAUmwSRVKiSRWq2EpUktiyndiZjO3Ik49pnkySSTKZJOOZZGJHE3lSPI5s2ZYlZWKZ6iRlsYkkCBAgOrCLbW/fvnp7PycfLrBYbsPbV3ZJ6v2GH/jevnLw7v2ff/8fSCkFQ4YMAQAAgA56AUOGvIMYysOQIbcZysOQIbfpUh5WG5bnh/1dypAhB0438hBF5CvfevPCfLPvqxkypHOqTfvijT7fhN3IQ1N3z8+1lmtWf5cyZMie+OGrC//9G2/29zO7kYdK3QpDYth+f5cyZEjnuF64sGpUGnZ/EwbdykNEDMsf5i6GHBQN3W3oru0GQUj6+LHdyMNKw4oINZ2AkKE8DDkYGprTaDuUAs3y+vix3cjDcs0EADhe6PpRH5cyZEiHEELXmjaEgGVQQ3P7+Mnd2UumyGHPDx1vGHIdcgB4frRYNQ+PpRSRbekHKg8RIdWGPTOecv1oKA+9c+5a/ezV2kGv4l2G7QULVf3oVEYW2aZ+oPaSbvpeQGbHUl4wlIdeoZT+n2cu/vF3Lx70Qt5lWE6gW/5kSeVZfMD6Ya1lAwAmSioEwHaH8tAThu2vtezVhj2MTOyJlbqFICxkJFXiGgcrD7W2AwAoZWWWwUP90COrddsPI9sLLSc46LVshlJaa9kHvYrtuTjfzCSEbFJIKNwB64d622EZlE0KLINs9x13Fd9drDTMICSE0KbRz4vaF05dWvvnX37h2lL7oBcCAADPn1qst531h1cX26MFReCYhMw1D1w/lHMyx2KORY4XDlNyvbBSs3gWUwr6GzTsHULpd16ab+ruX59ePnBbzvXCL3/j7KlLa/HDIIwqdWu8qEIIkzLX0t0+3oR7l4emM5pXGIwkgbWcIDroH+vdS0ToSt08MZNFCDY0585vGAyU0jAi5O23VKVunb1aPzmTO3utXmkccKHafEV3vHClbsY327UlDSA4XlQBAEmF1y0/jPqWot6bPESENnSnnJMZjFSJM50+Z8t/pjBtv6V7s+OplMo3D04/NHX32y9cX6waG3fZn761KvDMF58+CiG8MN88WBUxt6IRQmstJ/ayzl1ryDxTzsoAgITMEQpMJwAAhBEx7F5jr3uTB9sNHC8s52QGQ1ViLScIwmGKuksaums5wdRIMp8SD1AeblT0//v89ZferKyretsNTl1ae/BYcaKovu9I4czlWn9rIvbK3IoucLihOS3DBQCcu14v52VJYAAACYUHAOimDwC4ON/8vT8706PttDd50E0vCMlIVsYYqTJnOoEfDPVDlzQ1JwijclYupMX+Bg07JwjJjVWj1nb++szyuqq/tqStNqyPPjzJsfje2dx8RV+tW/F9FhH6vVdufP+VG1H/TJQ7MreiTY8kooi2DS8i9PxcY2Y0CSEEACQkDgCgWz4AYGHVeONyrcdw097kQbP8ICQjeQUjqAis0+/qwv2BUmr01ejsbg31tpuQOZ7Dxays274fRAAA1wvjq7s/mLZ/Yb758PGi50fnrtUBABEh567VcylxsqRCCMeL6khefu3iWhhRAEDbcE9dXDtzpbZvfmMYkfmKPjue5llcbzuLq7rjRUcm0vFfkyoHANBMj1Ja1xwviK5XtF6+bo/yYPoIgnSChxAKPBMS+k6wlwihS2vGqUtrW3UlIdSw/cWqcWG+ub5U2w3/9PuXri4eZCSRENrQnJQqsBgVM5IfRKbtAwD++vTyV79zYd+idm3Tq7ftJ+4fmx1PPfPSfETowqpx7nrjgaMFhkEAgITMHRpNnp9rhCEBADQ0d6Gqa5ZP9muFjbbj+tHMWCqXElcb9vm5BkZwqpyM/6qIHEZQszwviNqGRwidXzF6+brd5IFQenWxvTG+q1t+UuYxQgAAgWMIof5B6wcviF49v/oH3zr7X//s9MYQNQAgIvS1C9WvfPPsl//izO//+elz1xrx89eXtRfeXHnreuMg1nsT2wsbmlvKyiyDimnJDyLDCQilP3p98SdnlmNdsQ9cWWzxLDM9mvzAifKFueaFucY3n7vKsejh4yWMIAAAQnh4LNXSvWrTIoRWm3a1aeuWv29h9riYemY0WcrKyzXz3PXGSE5JKlz8VwYjVWZ1yzftQLd8BsP5it7L1+0mD6bt/+UL13/8xtL6M7rlpVQh/n+BxxGhB2svhRH54asLf/hX5zMJwfPC1y5UN/51tW599bsXCKGf+OC0JDDfe+VG/PylhabpBMaBpoRNJ2jq7khOZhiUT0tBSEw7aBtetWEHIe1vjdouvHGpNlpQihnpgaMFSWD+29fPVBrWZ5+YHc0rsYEOAJgZSyki8+qFqh9GV5faHIM9f//yTst1k2VQOScXMmJDc87PNe8+lF1fGwAgkxB00zdtX7f9yVJigPLgeGG97Z65crP6klCqmV46wccPBY4BALgHWrIRhOTZ1xcfv2/0S1+47+Th3PNvLK//KYzI7371dVXif/Nz9zx+3+jj942+eLZiOoHjhdeWNNePjH000zdSbztnr9Uu3Wgatp9NiRghSWQ4Bhm2P7+iu35ICK2196NQwguiC/PNY9MZlsGKxD310ETL8H7xo3edPJzD+PaNkVL42Yn0T06vuH50dbE1O56idP/SsEtVc7yocizOpUTd8huae89sbuMLMglRs3zDDgihd02lF6tGL3v0bvLg+ZEfRNeWtIgQAIBuenXNnSip8V8FDos8c7CRONsNNNM7NJJkMPrAyfL1Za3atAAAfhj96Q8utwz3733quCpxAIAHjxUhBK+dX12umbW2IwmMPpj+73rb+a3/8MOL2w0foZReXmz9k9/7yX/52uk/+qsLIs+kVR4AgCBUJc60g/mKJgkMgKDW2o/03MtnKzyHj01m4odfeGr233/p0ffdVdj6yvtm80s14/z1RtvwjkykCQXWvpTqUEqX69b0SAIAkEuJaZWHEBybSm98TTrBa6Zn2D7LoKlykhAa3wPdsas8BJEfRi3DqzZsAEC97TY1d3b85moEnhF5JnZi5lY0zTwAwZhb1jgGl3IyAOC+2TyD4ZnLNUrpmcu1508tfvHpo4fHU/ErS1n5yHj61fPVpaoBAJgqJwakH1bqZq3lPL/ByFxnrWX/6fcuTZXV3/m1h//prz70m5+9Z6ygAgAgBLLEaZZ3Y9U4MpFOq/wmR2hAnL5cyyXFUlaKH7IMnionN5oi6xybyigi92c/uKxK3F2TaRaj/lbR7YTtBi3dnR5JAgAyqpBOCPmUlE2KG1+TUQXd8luGK3DMdFkFAFR6mPxyB/0QR9nOXqvH8SwKaCZxy3/gsMgztbbz7Reuf+WbZ19/u+2+P1yYb6oSV0hLAICUyt81mT5ztb7asL/3yo3j09knHhhffyWE8KmHxi8ttE5dWhvJyYW0ZA5GP7R0j1J69lp9U7Gj6QTfe2XBdIJf+vjR6ZHk7ER6rKCyDAIAIAiTMrdcM1cb1l2TmVJG3h95WK6ZxYyE0J1jjKrMnZjJzlX00YIyVlAYBrX2xcOpa64fRLF+4Dn8wNHCpx6d2iSx6QRvu8FS1UyrfDmnCBxeqQ9MP3AMKqTFM5frYURWamZGFeK8YLw+iWeefX3xq9+91NDcy4vt/a/tuzDfHC0oAocBABDCD903Nresfev5qw3N/cyHZhj8tn/do/eMmHbw8rnV2fF0ISMOSD+0dBch2NS8Kwu347lBGP341NLLZys//9ihqXJi01sQhJmkcGWhXWvZx6cz5Zy81nL24cdcrpvxVnJHIIQfft+YwOJjU1lF4vretbwTa03HD6JDo8l4DY/eM/rJR6c3vSaXFG0vnFvRcilRFtixorJUM7v+xjvoB5ZBRybTZ6/XbTecr+hjRXVdHjBCqsxBAP/Fr7//8ftGWoa7z+0QYUSuLWnTI7dV/P1HC7W2871Xbnz4/rHYFNmIInF3z2QUkR0rKEmZH1B8qWV6YwUlk+DPXa+vP/nsa4t/9MyFpx4af/juEsabf3OIQCYhLKzqCMFMQijnZNsNBl1L7/qhbvr5tNDh6x84Vvy1nz/+yMmyxDMsg1v7UqBea9uyyCnizegqz+E4irORdEJw3HC5ZqZUHmM4XU6u1LuXh82fvhEviBiMjk6kf3J6ZW5FW2va9xzOb9x0P/nBqY+9fzKXEtda9oX5Vtv0JIHteil7ZX5FjyiNlWmMwDEPHiuGEXnoWDE2RTbx6MkRjsGlrNzQnCAknh/yW37fHmnrbi4llrPylcW27QYYwe+8NP/1Z69+7snDn37sEMfirW9BEGYSAqFgqpzkWDySk10/ahu+fOs+GATxBp9LdqQfAAAYwacfubk3ywKzD/JAKa23nXxa3P1l6YQQEQogTMochHCylLi00LKcQBa7uRV3uxv8IGIwPDKRhhC8dqHqBVEpK2203tZzEeWs7HiBZvgjuR0+awBcWmjyLI7rfmNYBn3+ydkwIuWcvO1b3n+yPDuRLmSkuRUWAGC5QX/lgVDaNr1yXnngWPHMlfqVxXalbn3juatfeGr2E49Mscw2whCjShzLoKmRBMfgck72g0gzvdGC0se1bSKuMM/d6W7bloTMtY2B+w9hRBuaW7zTClMyByFQRTap8ACAqXLCD6KG5vRZHiilrh+xDC5kpFJG/vEby9MjiVJ2+/tMkTgGo7a5r0VpF+db40VF2fDPRgjOjKV2eYsssLLAAgDid1lOkEl0c0PshOuFthsWUuJ4QeFY9PUfXWnp7i99/OhHHprYaiatAyHkOZxRhcmSyjIorQoQwvaA43X1tosgyCU7tZc2klT4+dWeyiI6Qbc8zfQeOFrc/WUsi2WRVWXupjyMqEFAai1norTZT+uEHS8SIdT1QoFnGIxOHM5qplfISHG8fCs8i+LY66C9QEqp5QRBEIURubbUPjaV2TY+eEdiL6jv8xAsJ/BDkk9JIs/EZT+P3FN+4v7xXYQhJpsQ/sYTM4dGkhACBiNFYgcdv25obiYpbGu/3ZGEzGmDt5fapqdb/kb9v8t6FIlNyBwAICHzosDUu+2v2lE/RIQ6XijxDEbwnpncC2dWJkuJna4rzzHphNDU3SAk3f3EHeL60b/6g5cmSuqTD46bTnBsKtPd50ixfui7PLihH0SFjMjzzGP3juTT4kcfnuS5O/8g6YTw6ccOxf8PEUhI3KD1Q0Nzylmlu91ElXnN8qOI3FHOeyHeXjOJ7bfgjSRlXpW4OPEKIcwmhXq7S3HdTR5cP5IEBmN0YiZ3aDS5XmS7FY5FhbRUbzuOFw5UHiilay0nruuy3GCXJe1ObDX1PYZjOX4YkVxKRBCePJw/eTjfxYcgCJMKp5leRAjuIDnQBZTSpu6Wcp0605tISiwAQLO8/lqbG6GUtk1P5JlObqf3nyglZA6hm7KdS4pN3SGUor1L+87yEBHbDTIJASOYS4n/+JcfjO2zbeEYXEiLlxdajhfu8rLeCULCMugzH5pZrBqWG3T9XbG9ZNl9lgfTDjgGCXxPPjpCsJCWlmum60WyOBB5iP31uya73E0SCg8hbOkDlIeI0KZ2sz/kji/+3M/NbnyoylxTd8OIcDsHMHZiV/3ghZLAxHW/6cRujhdCMKnw7uAnuuqWjxE8MZP98P2jfkC6U/cAAAYjgcd9L8KxnEAS2C62pY0gCHNp8dJCy/HC7oIkd0S3fC+IyjtER+5IQuYQBO1BuhCuHzY0t5CW+L2bGyKPo4iGYTfysOP2E9tLAofX1dDuqDIXRsRxB1sJ3NJdlkGSwGST4k5B1U6AEKoS13d/2nQCRWR7EwcAIcgmBMsN3IGd0Be34410+wMmZA5C2DL6luCnlG5q+XDcsNa285lu5EHgmDAi3fU/7iYPhFKeYzrcg1WJEzimrjlbxcH1wn5FSxq6yzBI4vuwa6oS11/9EMe+ZInrUT9ACCWRpRQ4XhRGAzmHSTd9PyDlfJf5DVlkGQz7qB8u3mj+o9999vzc7Q4tx4tsJ8yoQhcuOx/LQ9jNvryzPEQkIpRjO11NQuZSKr+0Zm7tJPwf/+/c73/9TF86S5uayzJIFPqQREvI3PqUyCCMeh+p4geR6QRple/ailtHYDEE4BvPXvnt//SjL/3HH/Xd79dMT+BxF1tvDIQwkxBb/UvJLawalbr1x9+5eHWxTQillNpeEEYkDqHuFZFnwogGUTf32276gVLQuQUmC0xa5St1a+uNdXVR00xPM/uwz7UMl2eZri/kRlSJjfUDpfTZ15fibvpe8PzIuikPva5NFtnRvGK5wd3TWccL+17uqtt+HJ3smkyC76M8NDU3mxQ5Fn3juSvxwOy24WEE1a7kQeBwFJGwq66gXfQDJYRsWwW0LRijfFparhmbOuaCiCzXDMsJ+mIytXRPldgOXZrdUSTOdkIAgB+Sv3px7gevLvT4gV4QWW6QTgg92ksAgJQqfO7J2d/67L2fe3KWUlC/VUwal/T0+OGUUs30lN489XRCiPMDF280Xz5X6bHhu6m7EyX1b33krqbufvuFuXhyYULhe9APJIj6ay8RQgjYUzLhnsO5IKQ/fG1x45NrTdvxItMJ+pJgahleQu5PPDchcbYXEkJ103e9qOu+26U149/9r1c0w/OCyHLDlNIH/cAyaLyolnNyPi1CCBq3ZODqYvvf/s9XehxuGUbUtIPUDqUGHZJRhbbhmrb/3OuLf/Hs1R4jE03DTSn87HjqY++feuls5ezV2krNSqm8KnUjtDyHw4j2WT+4fogw3JM8TI8kH3/f6Ne+f2ltQ8Pe9aU2RlDoUzVHS3fjkTu9o8pcFBE/iNqmG4TRYtXoYsYWpfQnZ1ZevVB95qU514tIRES+0whEJ7AMzqfEtVtz568utZfWzEoP/S4AAMcLTCfY1GW2VzJJwfGjy4vtUxdr15baPXo4Tc1NqTzG6MP3jx6fzvznr71xY1XPJcVdKiB3gedwRMi6/3DuWv1bz13tUIPtKA+GFfAs5jq2l2Ke/sBkPi199TuX1r9+rqInFX5mNNnU3R59VkJp2/KSvRm+66gSF9ektA0viEgY0S6G5Hl+9Nb1ekrhnzu1tNqwAABsxxGIDilmpfXmm0rdIpTWe+vFsd3QcoLuKvnWSScE1w9ferOCMVQk9vpy91PAKKUt3Y1TqxiheGhspW7lU11KLEYIIbgeXzpzpfbyW5W1zs6y2PHimY7Ps3ivxRcJmf/ix4+evrK2Hjubr+hTZXUkJzc01+ktoO64oe9H/cp/qxJLCHX9SDP9WFCrex9kPV/RG233l58+FoTkuVNLAOwhAtEhpYzc0Nw46rJStyilPdpLjhfabphWe5KHjCrYTvjGldrPPTA2M5q6eGOb+Qkd4gfEdMP1kUrFjPyrnzx2aCTZdbk7ggAjuJ5/sN2wqbkdjmjYWT/YAc/hzuOt6zx4rDgzlnrl3GoYkojQGxV9ZixVyspxddNeP20jLcOFsMuYw1ZUmYsIdf2wbbqZhAAhqDb3NuWFUnplscVz+P0nSg8dL565UkMI7lWj3pFSVrbcwHYDPyT1tkMo6EUeai37udeXTMdXelOz6QRPKE1I7MPHS+MFZa/HplhOcHWxFdvPmuVRCpIb3MLH7h391U8dnyzdubJ1WxCCCML1qTO2FzYNb61lb2uuu354fq6xfmfuIg8+z+IudjuWQR9+3+iNVX2tZTc1x7CDQyPJTEKw3MDpzetqGx6EYH0j6ZGExJFb9lIpI+WSwl7tctsNry1pR6cyAoeffmQaQSgJLNvvcsaRvOL5Udv0WrrreGFS5rou3nzlrcrvfPnF1y9WP/vEbNd3W0wmIbAMOnk4P15KTI0kF6rmniZxPX9q8X9/+7xm+QCApuYiCJIb/HuOxYfHUl23aiEIMUYb9EPg+dFK3dr2uPTFqvGVb529sti6+d6dPjT2H7qzho9NZU0nWK6ZcTpioqTKIhuGpMfzhGL90K/4UqwfbCfQTD+dEMaK6uoe9cNqw1qqmffO5hiM8inxkXvKSYXrS25kI+Wc5AWRZvr1tuOH5H1HCprpdRHfJIR+5ZtnD40m/s1vfvAjD0/0WHTIsfi3v3DfLzw2jRGcLKsIwj25EMs1q6V78dCalu5CCPu1zYFYPyCwrh88P+I5vFwzTWebDNhS1aw27MqtAeY73u62Gwg80129sSgwuZS4UDUWqgbDwFJOlkUWoV57vlq6hzHsLga3FYlnAKBNw3O8MJ8SJwrqWmsP53xSSldqFkYw7iKQBOZvf+TIpx87JPUjd76ROICrmV5dcyAEJ2ayfhB1MQN8oaqvtZyPPjzRo+ewzpMPjufSEgBgNKdIArMnF6KuOW4QxRm9puFiBBNS38qiIYQY3dYPQUjGCoph+eZ25cxLNcNygmrz5qXfTR7EbrcQgcOHx1Jzy9qlG62RnMIxWBHYpMyv1LbJXndOy3BVie0uBrcVjFF8erHjhbm0OFZULSeIi4XahnvH/uAgJNeW2yM5OQ7kQwjLOWXjsI9+gRFSJVYzvXrbySaEkbzsBaQLeThzpS7xzJHJLjuodkHgmaly4uKNVudvabRdzw/jCqim7ski24WnuhOb/AfPj0ZyMqVg24j/8pqFMKw27bg5bBd5CEW+yzuPwWh6JLHasM5db8TjhiSRTan88prRy7kBLcPL7lp2vlcEnmnqru2G+ZQ4WVb9gDQ0l1D6te9f/vMfXt79vV4QLVSNqXJC6ZO+2gmIQELm24ZXazn5tFTMSEEY7VXTEkJPX1q7ZzbfY1p6J45PZ+YrutNxFmKtZbt+FA81a2puNiX0cR9BEGB8O77k+OFoXkkq/FxF33r7rTasiaLa1NzYmtpZHrywaxMTQljKyhijRtuJ5YHBMJsUam23l3MD2oa3exvGXhE43NRdAKgscuMFNQijpu7WW87py7X1Kc47EYTEsPy4Fa6PS9oKgjCp8NWW3TK8UlYSeZZnsb7Hsbl1zak07A/eU+67+oq5aypju8FyZ4PAwjBqm14YkZbhEkpbhpvrLTm4CYQgg1EQ3jwk0vejYkbOp8XrS+1N5kkYkVrbOTKRDgmJizu3lwdKqeN1by8BAIoZaSSvUACmRhIAAAhhLiU2dbe7LHq8pJbh9rchS+CYluFyLGYZpEicwDNNzbmy2NJtv9rcPjy3ju0EfhClE/3c2LYFQRjHvmotp5yTEYKKxO3VXoonhz90vDSgRc6MJAGlHda8tAwPQjhRVA07cNywqbuZvm5zCEKORXHNchQRL4gkgRnNyyt1a1NTRBxhnx1P8QxuaC6ldHt5iJuBxB5mE0kCOzOazCWFsVtZlZG8Qih94c2V7mq/woiYdtBJd3nnCBzT1DyORXHZYjYhrLWcK4ttSqjrR+auA/zmVjRV5vprv20LRDCXEisNq645payMIFAlVjf9ziN1hNC5ijZeUAdkLAEAWBYXs3KHCZym5mIEj0ykDdtvm55p91o8sgmEIM9gPyBxPB1CKHDMaF4xbX9TTe7Cqs5gNDOWKmSkuRUtIjvIg275CMIe2wweOl78+585od6KG8yMJj/5yPSffPfiMy/OdSEShh1EhPbbf8BtwxN5lsUIAJBNipcXWnMr2gdOlAAAu1eSXllsp1Uh1adYzS4gCLJJUTN9Smk8gi6tCns6dNmw/YVV4+RMdqDrzCbFDoeU1TUnnnNn2sFqw4oI7bF4ZBMIQo7DfhhFhJpOgBEUOFzKyCLPbAoK31g1RB6PF9VSVp5f0aNoB3loGy5GsBd7CQBQzMiP3Tu6XjHOsfiph8c//9SRb/342g9+urDXQJNh+RGhmb5uJBLPBBFJyly8yEJavLLUbmjuw3eXAAC7n4E7X9ELGamPUZFdkEVW5HAmIXAsRghmkoLlBp0n+2stp9Zyjk8PVh4yCUGz/PiokN1p6C5GaCQnU0pXGxYhNNtfeUCQY7EfkIhQywkQgjyHEwrHcXj17SU5i6tGISPxLC5mpNWGHUZk+8t5fVljGdRjy8hWBI75+Acmn7h//OVzlb1awIbtE0LTfbWX4ilMSZWPzw4sZmTTDvJpKR4ovUt5X0ToQtUYycmDdh4AABBCgcVJhc+lRI7FCMJsUrCcoPMS64bmQAiy3ZbHdUguKThe6Lh31vwNzU0qnCKyGMNq044IzfRZPwCOxUEYEUJieRA4RuQZRWDX3m7RLVT1sbwCAChmJNcPG5qzjTwQSr/78o2pcqK/UhvDMvjYVHo90g8AWKzqv/vV1146u2JY/kalQd5+KlMsD/11vOIpTCmFj+2lYlaCAMyOpzIJMa3yu5QJLa8ZQbjjlNi+w3E4qfDZpMgxCEKQSQiWE9id6Yd4pKzAMUIHg1t6IZsSPT+y3Dtvc03NyaVEnmdYBq82bEL7fFkRgjyLYv1gOgGCUOAwhDCTFNY2HETmeuFay4mrBgsZURKYizda28jD3LJ28UbryQcnBrT55dOSF9w+vu3MlfprF9f+5HuX/uUfvHR+/mZVLKX09KW19aoSAIBu+SyDejThNiGLLIORKt0cZZVNCicP5+6aTLMMKmWlXcqELt5ocSwe7bYff6+IPDNWUMYLCsdiCGE8hKbDYL/vR2stJ5cSuAHLQyEten60bQ54Ew3NzadEgcMphbtR0UUO9yvHGgMh5FjshxG55T/EpVDZpFht3N7jVpsWITSeh5lShAePFSV+SzEmpfT5N5byafHEwNwvRWQRhMatYpJq0z4ynvrS5+/FCL361s1Dhjw/+ssX5r79wvz6uww7iMdg9XElksDE/8Ufm0uJv/7zd8dTuooZeRf9cGWhlU0K/aq0vSMJifvEB6cfPH5ziD/HYoxhh/aSF0S1lp1Nin0vrNpEShVCQnYPygEACCFN3culRIFjUqqw1rL7/jPG/kPwdv8BAJBNCi3DXZ9rEaum2F5CCH7+ySOPnCxvloe26b15pf7kg+ODO8kBYyQKjHFrI1lr2bmUeGQiPV5Uqq2b7o5u+WGfNbsAAAw0SURBVJYT3NgQzzZsP9nvH04WWJFn1nWOwDEzY6n49I1iVopzRlvfRSm9tNCaGU0OOhO3DsOg2fHUSO7muFWewRghu7NRV34QtU0vnrM40EXyLGYZZN1JHmw39Pww9oVSKh9FtMfO1a1AAFgGBREhhFpOwLGIwRAAkEkIYUTXg2DVpi0L7HpdLc9hvLVc7/z1Ztv0nn5kqr9L3EgcuVo/vq3ecrJJIR5DW2ve3JJ1y3e8cLlmxh4FpbSluf11pgEA8VDobWfgFTOS70fbXl3d8tda9u6D9QcKxyKRZwzb7yTZ7wWRc7Ore7DygBEUOOaO+kG3/IjQXFJEECRlTuBxpt8xawghixGlNNYP6x28maSAIFhvlFttWOWcvEkE3vYgjMjpy2tHxlP9zZ9vgsEozrASQgih9bYTp2MKaanWduKAXdv0HDd0/ShOAlhu0DK9yQ5Gn++J6ZHkP/u7D01s97GlrBxEZGuZEKX02nI7DOmR8QOTB55jkgrf1N0guHNw03KCICR934O3gjGSeMa075AobJteRGghI8YjEmWB7W9waX0xhAJCqOn48i1LJ5cUEYRrLQcAQCldbdhbL/3b5MF2Q47FT9w/1vf1vX2tMJPgTTvwAhL3LsfykE2KYURidaZbHqEUQrBQ1QEATc21nGCynOzvSjgW59PSthPgihkpDDeXkRJCF1aNZ16cHy8q++ZMb0XkmZGcPLeidzJfcKVuSbfOzhkoGEFZZC0n2D2zpJkeoTSuu1FlThbZ/gaXYhgMwU39EK5X4KsSK3A4Drkatq9b/viWpqi33QqKyH7mwzMPHLvDiSw9ghHKJATD9v0gWqmbGKM4sJtLCQxGcWeGZvqFtCRwzGLVAAA0da+XeaNdkFEFAMHGmVERoVcWW3/47fNhSH7jb97T9z64zmEZND2aaBs79gQvVo3Tl9c8PwQALFUNVWL72G2zExjBpMKbTuDtWnygWz7P4PgeTSl8WuWLmS7H7u8Cc0s/WG4g3tIPCKF8Wor1Q7Vh224wu0XJv914QrCQlvp+xOAmMIIplTedWB4sjGAsD9mkiDFcqZtRRHXLL6TFYkZaqJoAgKbuCjyzn4c1MgxSRE7fMFNQM71vPneN5/CvfPLYkW4nxfeLyVIiqfDbFuFSSs9erf/ht8/HUzlW6lZaFXrshusEjGFK5a1b8rC0ZlS2m8+gmV5K5dYDer/yyeNHuz3UZheYm/4DMR1/Y4dWKSvVWjYAoNKwIQRblfx+lBtsAkKgilwQEC+IlmumLDBxSEcSmJTCV2qW44ea6eVS0vRIcqGixRMlEjLH9LtVf3fiQ0nWHy6s6ss18xMfnJoe2b/I0k5kEsLsROqVt1a3/imKaMv0ri5p5+ebAIBq0y5mpH1YMEIopfKmE7heBAD4/a+f+dbzV7e+TDP99QY9jsVHJtJ9L4MAADAYkthesgN5wzZazMjVpkMIXambuaS4dXzMgcgDFHhMAfCDqFK3ilk5TofFXROVhu24oW552ZQwWVIrDdt0gqbu5tNi58Mz+0JS4TXrpndIKX3+1NJEST08ltqHGo07AiE8OZNr6u715c2DLcKIWLaPEPzxqSXPj5q62+Gh6z0SF966fugFkWH7b11vxKepb3xNbAkn98W5pxQEQeT40cYcbikreUHY1J21pj2aV7bGoA9AHgAAsUnmBWSlbpWyt69WOSdXGpbtBqYTplV+oqSGEVlY1Zu6W87KzCBPK9tKSuFN2w8jCgDQDO+t6437ZvP7abPtzuGxdCEtfeflG5ueDyNiOsHMaPL6ivbKWxWMYKGrQ3X3SlxWDQDw/PCt6w1Kge0Gmypeg5BYbtD3AOtWGIQABZYTAAo22kvFjBQReqNiNHV3ciSBtuQbDkYeBA6zDGrpblNzSpnbXnI5J+uWV9ccSqkssmMFlRAwv6Iblp9PS3FWZd/IJgXHj+JJjM+eWhJ45r4j3ZwHNyAkgbn/rsJLb1Y2JUnCiFpO8PDdpUJa+tr3L3EsvuOR5v2CZzEA0AuiN6/UUgpvu+GmfgPbDf0gGkSAdRMMAxGCmhVQ8HZ5yMpRROdXddMJRnLy1hTlwciDyDOKyF5ZbPsBKedvy8NoTg4julg1IQASz+ZTAsuia8taGN0s/d/PReZSouOGthtabvDMS/MPHSvmBlwiulceu29Es7w3Lq1tfDKMiBdEpaz8yMnyYtVMq3y/JvTcEYHDgALTDs5dazxwtIAgaL29RthyAs+P9uFnZDBiGNTSHULoxtNzsgkeIXB9WWMQTMjb5CgPSj8wqsRdWmiGhGzUD6WcEoZkvqJhjAQeY4zKWWluRQMADOgktV3IJgXXDy3Hf/HMSr3tPPXwoAocu2Y0rzx4rPjj00sbJzGHEYkiKnL4w/ePAQBG8kpfjgfoBJ7DPIcuL7Sahvvg8aIssi3j9qT+lu4+f2pxtWkNIuGwCYwRi1Hb9CilkshsfF6VuGtLmixx8nam70H5D1iRuKuLGqVgo3UbHyZyeaGdkLk4zT6SU+YqurpDVcVAkUXO86OvP3v1a9+//NRD4yO5A0vA7QSE8LNPHF6smpcWbhcChxGJKOE5ppCW/sFnTjz10Pi+rYfnGFnkTl1aC0Ny8lAuIXMtw4vTcz98beEf/scfPXtq6YMnR/Yhj8QgyGDY0j1CwUZ/GkKYVvnlmlnKSrK4TQx64GHpbcEIKhLrh1EmwW9Md8RjB+Yr+r2z+VjNjRfVKKKZhLCtNA8UlkFBGF1ban/6selPPTq9z9/eIcenswmZO3OldmQiHccbwpAQQgUeAwB+4UMz+7kYnsWKyMxX9OPTGVlk82mpbXiOF4oC88yL8/cfLfzap++Oa9UGvZLYXmrrHqV0UwgknxIxgsWMJGyXZzsY/QAhTMgcv10LwUhOhgAklZsHD0+WEnHCrr+dD52QUvhf/NjR3/7CfZ96dHqgh8z3AkLwsXtHz19vrjZulqlZbogR2vZiD5pY7VMK7p3NIwRLWampu5Yb1NvOYtV45EQ5lxL3x+ZkGMQyqGm4AIBNd04xKycVPp+StjUjD0YeAACqxHEs3mqElHMyzzEJmY+XO15URJ7JJIR9M4LXkQTmQ/eP3XM4944Vhpjj0xnHC68vt+Ny17bhivzAu+G2JS5hYhl48nAOQpBNiqYT2G547lodADiIPPROMAgyGLUNj2PxpiRDPiWmVH6n3s8DkwdFZHkWb225LGVlkWfWWx3SCeHIeLrrk8N7AUKIEXyn+dBbKWakw2Opc9fqthMAANqGJ/LMgegHCKEqcmMFtZSRIYSKyFJKbSc4fbk2WVIH0X68E5hBLINcP5JFdtMVPDGTffze0bEdDpc4GP8BAJBU+ITMbV3WSF5JKtx6fbIksP/6Nx7Z99W9m5BFdryk/PStVdePFAm0bsrDwei0D5wsHZ/JxJdPFlgIYUN3L8w3B9d+vC0MQrE3JW+ZmVTOKZ9/anbHNw52XTtTyspf/PjR44c269DpcuILTx2ZLCcOZFXvRiCEmYRguaHrhwCAluFKAnNQNl5Cvp3ukERWFphX3qqYdvDQ8cEWTW8iPpgGQrDXY18OTB5YBm1bWK5I3OP3je7/et7VpFQhikjcy6/HU2X33d3aiiwwKVV4+VxFEpkej1/pApbBGMGt+mF3Dsx/GNJHUgonCexKzQQAGLa//7mabRF5JqXyuuUfn8r2d4JGJ3AsQgju9acYysN7gZQqJGRuoWoAAAw7iOvnDxyEYEblRR4fSN1XrB/2OrJ2KA/vBQQOZ5PC0poZRsRygkEfSdEhEMJCRposJY4fGuyozG3hWYwQkve4NQzl4b0AhDAerx3XVw9ujvdeOTad/a3P3dPfccUdwjIII6hsV5SxCwfmTw/pL8WMZDr+9RWNweidIw+KyCqjBzOIJJ79PPQffkYpZSQGo5++tcpg9A7xpw+WW/phaC/9TFLMSjyLX3xzhcFwEB3J7zqG8aWfaXiWKedkww4kkd3nRvN3JjzLsBjt9XTm4Q/33mGipAIAMurAR1O+KyhlpcfvG93rSVxDf/q9w0QxAQDYhyO83hXkUuLf+dhde53iPJSH9w7x0cb70I35rgBC2MUAiqG99N5hJK/kksJUeb8rhd5LwM6PbR3yzodSOnQeemEoD0OG3GZoLw0ZcpuhPAwZcpuhPAwZcpv/D/9KblOXJmE5AAAAAElFTkSuQmCC;imageBorder=default;strokeWidth=0.25;" vertex="1" parent="1">
          <mxGeometry x="70" y="440" width="210" height="140" as="geometry" />
        </mxCell>
        <mxCell id="q82MvRItSnuRYg2Ndtge-16" value="75% Perturbation" style="shape=image;verticalLabelPosition=bottom;labelBackgroundColor=default;verticalAlign=top;imageAspect=0;image=data:image/png,iVBORw0KGgoAAAANSUhEUgAAAQUAAAByCAIAAADVpFMLAAAACXBIWXMAAA7EAAAOxAGVKw4bAAAgAElEQVR4nO29WXBk2XkeeNa739yQWKtQKNTeVdV7N5tkN9XmKotNUVaYo9FoHBIdclgRjrDs8ZPnwS+emJhwaEZPdgQjxjOasUnFxHCGFilaJCV1sMluskn2Wr3V1lUFFKqwI/e8y1n9cBKJRCYKBaAAJNqN7y0Tufy4N7/z7/8PtdbgEIcAAACglF6pxoFHHYtACPstTh+A+i3AIQ4QKo30P7304Qe3Sh/bM/KQD4dYQxTzqbnaYin62FoNh3w4xBq4VFyolEvwMaXDIR8O0QEhFZcqZfLjSodDPhyiA0JoIVTK5MfVXDrkwyE6IKRixl76uBpMh3w4xBqEVEKohImPrX4g/Rbg4wilNBdKaQ0hoARhdFBOJeM/MK76LUjfcMiHPmCpEv/49ZlalFKMHzldfPLccL8laoGLVnzpY6sfDsrJ9LHCncX6T968kzL15tXF7/70Rr/FWYOQiguZMvGx9R8O9cN+Q2sdpyKfsV94dhJjeG263G+JWtBai9X8w8eUDYf6Yf+hlG5E3HVI4NKsZzUi1m+J1sCE0hocxlt3ghdfu/2tH17ZRVE+JpBK15vMs6lFsefRZsKlPBD+q9KAMQkA+Dj70zvkg9Z6er72N7+aPiD38iMEpXS1mXoOsSgKXEtpkDDRb6EAAEBrnTABIUi56Kpf4kK++u7sgVJle4Qd8kFIlaRypZrcXWzsrkD/1UMqXY+Y5xCL4sClWoNmciD4oLROuXQsLES3tVSqJd/4zru35mp9EWw/sUM+rGYxwVvXFndVnv/6oZSOEuE5FCMYuERrHSe830IBAIBWgDHlu5bS3eWt1QZLmSjXkj6Jtn/YKR+4icqBN64e8mF7kEonTHgOgRAGHtUARAdDP2itUy59hyjdTYhGxJQGzfhA8HZP8QB84PLssfz7N1bi9EDczo8KlNJJKj2HAgAC19IaNA+GflBaJ0wEHiUYGeXfRj1iUqnGIR/uBcZVytTj54aYUDfuVHZXpp1BKT09V7s1Wz3gvSxSqZRLzyYAAN+lQOvoYBwoWgPGpe9SSlCcruNDI+JKgYPMh2ojfffG8oN/zs71AxPyzHgu9OjlqdKDy/HgEFL91c9vff+VW/Xo4N42AEDKpZTacwgAwLEIxjA+MPYSF8q3KUGoK+TVTLjS+iDbS1eny//7X7wr1YNGO3fuT0MAfJeenxy4MlU6CEey0npmsf7hncr8SrPfsmyGWpMRDI29hBD0HHpA/AelgVTacwhCMFmvsuoRV0o3Y34QbvSGWKnG8ytRrfGgEeGd6wcEISXo6fMjs8vNcr3/kQetwEo1uT1fm1moH9jbBgAoVROLYsMHAEDg0QPiP2itpdQm8NVlwjUiDgBImOTigKabGjEXUi1V4gf8nAfgA4IEo8dOF1Mmp+fqDyjHg0MqFSciF9hXp8sHWbOX66lFsbGXAADBAdIPWirluRvoh0bMAABcyORguDpd0FobPiyUogf8qJ3704YPQwXPd8ndpf5n5WpNZlv4sTODU3PVWvPgZlLLtcSi2LVbfPA9Kzoo+gFIpT2bIgTjbj5wmyIuVHwwUuld4FJFCdcaLPdFP5hANYKQYAQhHMi65Xr6gHI8OBZKkU3xwyeLSoPb8wc3k1pppJ5DKGld+cClB8efVkp7zkZ8iPhQ3uNCJUze6+19RJpKcw0Xy/3QD1qDJBUWxQRDAEA2sKv1tO8m+/xK06b4wsniWNH/5QcL/RVmE1Tqaca32tPvjP/Q96sHVv1p3yV4Az6wI0MBO6j2UsJElAqM4GJf7CWpVJRy18GEIABAIbSbKe/K4Ow/FkqRZeFizjk7kX/vw2Wp+vkL0z0p3jZqURp6Vvth4FpcKHEAyiK10lIq1yYIruODlCpOxXDek1JvSz8kTMwtN7b4rzEh/6/vv/+Ld2e3LTcACZNxKo4MBcuVB43r7IgPUkeJcC1CMAIAFHJukoi+O4WLpSgfOhihh08OEoL+5pdT+3boaq1LtWSh1FRaAwCkUj99687/9H/+YmquOzmota42WMZf40PoUSF1yvrPBy4kgJASbFs47fjdx0xoAELfsijaVi3Cux8u/5v/8PoWq57qTTY1V/vFe/PblhuAhAnO5bHhcKn8oJMFN+bD5pyWSkcJd50WHwYyTsxE353CxUpUyDoAgKPDwVMPDX/v5ZvV9V51M+YzC/W9OImZUD96derbL1435oSUen4levPK0l++fDNZn+gVUjVj3qkfQtcyGetdl2q7iFJBMKIEWRTHHXyIEqE1CD3Lpnhb9hLjstpIt6hSEiZTLm/crW5bbgASJiGCQ3mvHvMNv84cWFsxGTbgw8JK9O++femlN2ZqzY29AiFVlAjXJsZ/KGSchMn+hji11osrcTHrAAAQhF95brIe8ZfemOmU/90by//H996bnqvtut6QUi2Wo2ojNceqVLrWZCePZK9Ol7/38o3OrzMU7dQPgUel1Iz33y6PEkEwpAQ51rrffZwIrXUmsCyKtxVfElILpSuNLcVaklSkTN5dapjY7raQpAIjNFTwAAAbqqNSLfnmDy9Pzd6fbBvw4d0byy+9OfPNH175X/7v167PbFCbZCqW2/aS6xAEYX/tpSjhUSoGsq55OJT3Pv/U+M/fmesMwN2arb59feln78x2ndkPDil1tcGiRJh0lVK6FrELJwe+8tyJ771889/8h9e++5MPp+drSulyLcEI9dhLKj0AcZs4EYQgSlCXHohSrgEIPcuieFuXTiqllK5sLVebcsm45ELdurvt2GDCJEZgKOcCADZMDS+V4w9urtxZvH+WbAM+3LhbOXU0+6/+8BkAwF/9/FbvC4TSXCjbbq0IoBhRgvrLh6VyAiAYyDrmIYTwt54/Wa4lr19eCzTNLTdDl77y9t27y7ucLZFKV5tplAguFVi1J7O+/eufnPj6C+ebifjmD6/86bfevDVbLddThGC4Tj9YUum0o0WzEfO//dX0/oeMmyk3t9K2cKfVEacC6BYf4rS7dW4TSKmV1pWtxeITJiGEBMEr09srhzPzGQhGxbwLACjXNvi6aiNNuapuoZpjAz7cvFs9MhROjGSef/zoB7dKvYaQkkpI5VBsHhKCLIqjvgYNF8tNBGE+47SfCVz69IXhD26V6qtdjqVa8tmnxk8ezf3FSx/ubt2BVKraSJsJ51wCAJTSKZOuQyCEX3xm4l//40/96T/7tcCjl64vL5YijGDo0fZ7fZcqpTv9h0o9+cGrU1dvV/Y5RBYnLf/BpqSzni9KhNY69Kjv0JQJueXhG0IppXR5a/ZSyoRrk+Nj2cvbLIcTUjci5rtWPrQJhqWN9EO1yRiXW7HcuvkgpJqerx8dCgAAj54eJAj+9K073a9RWkhlWy0+UIwcCzdi3scY+kIpIhgWQrv9DEbooeMDpVpSracAAKX1ciU+eST3pU9OXJ4qXbq+m21Mq/YSZ8LoB5Uw6a9WKEEIRweDT1wY+fm7s9dnyq5NHGttzA/BiGDU6T8wruoRm11qcLGvRlTU5oOF1tlLiUAI+i4NPBqnkm85ICGlVkpXNjqwe5EwSQk6dzx/826VbSe6IKSqNVngUZviYs7dUD/UGmnK5Faq/br5UKolzZgfGQwAAMMF7+xE/gc/n+qKyUjDhw79kPHtRsy2fqV2HYvlOBc41qpIAAAIwUDWSbk0tRu1JkuYzGfsC5MD48Ph3/zy9i5+ezPhjKuUSS6kyfKmTLQrlAAABKMnzw1BCN68upTP2J2rqCAENsWd+oEL2Yj43HJD7G/xXJwKQiDF2LZIp98ct2InKHBpwsTWA3TbspdSJglGp8dzzZjPbadCWUhVj1jgUkLQYN4r9fjTSutqkzEhq83t64fZpSYA4MhQAABACD736JHp+dqH671qKZWQuq0fCEYZ36o3+bZovbtYKkfDA9763xn0HEowNHyYma9TjPKhY1H88KniW1cXdzHVWqolrkPaldsJk0oBz14362206D95bjhKeL5DiRk5bQuzVXtda50y2Yz57HJzn8+XKOGUIIyhTXHCZNtoiVLuu9SoiDjdBh+E3Kq9ZFrzLIpOj+e01lOz63ynP//R5el7e1NCqHrEA5dijIbybq8/zZhsxlxrUN2BvXR3sY4gGB3wzcPHzgxmAvuVd9ZlDZNUQAjW7CWCsoFVjxjv39yepXI8XPC6nvRs4likXE+U0rcX6hbFhYwNAHj8zFDM5C62Ma1Uk9Cjg3m32ki1BuV6QgnyXNr5GozQF54+FnpWPuN2Pg+B0Q+tS6cBMAReWIn4/p4vCRM2xRBCy0JS6vbvPkqE71CEoO+QhMmtay2ptFK6uoX4kpQqToTn0GzgjBT9qfm1QBDj8rs/uXll6p5TDIXSKZOeQxGEgzmvUk/V+q6gKBWNmLs2rm9hXk43H2YWGxMjGUpav3WM0VefO/HWlcWV6lrgshYxi+C2vYQRDD2rGfN0f+3dNlIuyvV0tOh3Pe86ZCjvLZSilMtbs9VMYJmug+Oj4VDefePKwm4FAJYrcca3hvJupc6U1qsdDt2zQIs591/+wdNf/czkumchsOhaPlgrbf4X1yHzKw9ajbMtxKmwKQEAOJRACNoto3EqfJdAABybmNISxuW//fbbVzcNBJnplxqASoOp+wUGuFDNRPguxQieO1aYnqu22Xh3qZFw2c79Gyil7yzWL99aAQAIoZiQrkMAAEMF16iLzg+PEt6M+eRott68f8hnHR+01neXGpNj2c4nn3/yqAb6lUuzbREbTW5R1NYPEELPIUKqfT7P2qg1mFR6ON+tH1yLFHPuQjlKmbw9XxsZ8I1BhRD61CNjV6fLuzUIrFRLcqGdzziVRqq1bnU42LT3lecmCsXcOjkhhLaFUt6yT5QG5XoyWgwKGefW7L6GXFMmzT21KQZgrQUiSkTgWhBCi2AAAJf62u3yT9688+GmffOt6nGHSqnuO8hMSBUl3HcIxvDsRL5cT9tu8d2lhlJ6pZq05VFKT81Vv/Gdd/7km2/UmqmQinNlrNPBnGvc684PjxORcjk26G/F+VnHhygR5Vo6OZbpfHIw537uqfFX3r7bturqEbPomn4AADg2kUrv9ZxDpfVKNY7T7vhvpZFKqUYGuvmAMSxknFojjVM+s1BvG4EAgOceGSvVktvzu9PGVKmnAxnXd2itmWoNSrXEttY6HDYHBMCxSHvEvNa60kgHc+5Q3tvEaN4LxKkw99SyMARrUwPjhPsuBQCYGnUh1K8+mFda15ubVSQopaVU+YyNMbpv+yQXKkqF71KC0Nlj+SgR7crt2aUGAKBST9rZg9nlxrd+eIUSzIR89d05LhSXylztobwnpO6yi6JUIAgGsq5ebfTbBOv4sFKNUy669AOE8DOPHvFd+vLbdw1HW3zoCBq6FpFKsz22lxiX//67771xuRUqlVK9/Pbdb3znnf/vxetRKoZ6/AcIYS60o0QuluNGLDoNqlNHc46FN8y+7wDlepoLbc8hzVgorauNNHAJxlvaZw4h8BzCuDRHl9agEfHQt8aK/lbyqbuIJJUmQGdTDCFIVmtPEi59lwAAjBXNuHz9gwWl9OaFFUprIXUhdDCCG8ZAOyGkjhPhOhRjWMg6BMG2fT673MyFdjMWtdXo0H/8wWUm1O9/+aEnzg7955/dasQMI2j4UMw6Qqn6ev0QJQJjVMg4EMDa/TTVOj4slmPG1eSRbNeLhgrel5459sv358yJVYu4vV4/uA7BCDX2uN9cKf3ezZWbsy3jMuXy2y9ee/vaYqmePPfoWLsjuRP5jAMheO/mCgDABJENCEGnjuWvz5R3lpgzxrGUZnKXrtSTXGj7DjVdWpVGmvHWBVU3gYmDpazFBzPGIvTokaFgdmlfQ0wxE8ZecmwMADBnH2NCSGUKEC2KAAA37laXKnHGt2tNtsntlkpLpQoZG2O0cr8SVyGUlMq1MIQQY5QL7XbY9M5C49hwiDGsNJjWutpIr0yVv/zpycmx7N954uit2dov35t3LGL8B8sirk067SWtdTPmBKGBrAMhuG/j5Do+LJUj3yWd1TUGEMKLJ4sXTxS/8+MPGZdRwl2bILR2v12b+A4pV5M9zahKpRsRm1+JzH9VrqdJKv/otx/5k3/6a//i957c8C35wMr41msfzCMIhgvrAjuPniwuluNSbScdhkKql96Yee2DBZOKjhKR9S3PNXzQ1QYLe67hvQAB8ByS8larvrl/gWuNFn0NwJ2FfVIRWutkzX8gEEKjHxIupdRtewkj+OaVRYuiT5wfbiZ8kwy6UlpKnQ0cuhV7SSqptTlhEYL50CnXUqW00np+pXl0KHBtUq4nWoNX35vzXXLqaBYA8PDJ4lDe/fEbdxxrzVvLeFanEhBS15pp6NNCxoEQ1rfJh3gw1211tL7Gtz/71PjN2epP37oTxbwreOJaxHNIqZ7c68CIU3FluvSACddGxITU8ytNE0h+98ay75Kjw8Embwl9KxfYU3O1fMbpUiDjI2GUiJ0Na2JcvfbBwmuX55sJX67GCMFMYPsOiZkUUtcaae+Zck9A6Dm0bS8JqaOUhx4dHfApQbs+6y3lcqkc9ZaXm81AdsteQsCULQGQMimVDlp8wLaF37+5cn5yYGTAZ1xtksNRWgupHBuHvtWbI+v9dqW0sdYQhCZynTARJ6LaZOPD4UDWXVyJUi5/dmn26FBoCjcpxV96ZqIeMccmrt2yVkLf6vzRcyErjTTj24WWfriP5bbGBy7USi0ZWn+IduLMsfyzj4x960dX51aaXXxwbOI51HB6w/dOzdX+419dvvNgw8BNMdxKNa7UU631pWtLwwWvEDqbvIVgVMy5GMKJ0UyXAWNRjBDcGUVNB/nMYqMe8eVKjBHMrgZzza9tG/oBtvSD4UOtmQIAA49mAisf2pv3A2xusWyIOwv1b/7wcq9nEqcCQtjig4UhBGY+b8qklCrwLAAAJcixSDPhT58fzoU253KT9iCltFSaYpQP7fv7D0IpvcoHBEYGvFqTNWK+XIkAAEeHgqG8O19qLpaiy1Olx04Ptm2Tzz017trEtUm7NCHjWfVoLcIrpDINuqZ/Y/MYAOjkQz1itSY7OhTe66WUoK997jTBsNpg/vqzlmAYeLTaTNt3Z6EU/fyd2XbuZna5MT1fe8Bh4OV6mvGtbGDPLjdTLt/5cPnMRB7jzVr8IISjRd+28ORoputPGEGC4M5iYkoDxuXt+VqtmS6VY4RgLrA9h1oEXbtdhhBmt2cv0ZRJM2V+qRxbBIWehRE6Ppb9cOaeeahKPfnnf/rjqW3OoF+qxK9fXrx8qzt10EwEgtDYSxbFELTyDykXUmnDB4sg1yaUwCfODudDO+Vqk6Jmox8oQYWsvbl+0FozIZVqVTwgCIcKfj1ijYiZ+TFjRb+Ycyv19PXLCymTT54bar+3mHO//OnJU0ez7cNueMCrR7zdncaFqjdZ1rdM1ri6dXuJEjQxEp4/Xtjk1YFn/fHvPObaJPDW3W8IYTawlspxPUq11suV+M++//6ffPMNE4LQWperSZLKt68uPYjDXaklucCeHMvemq1enS6nXJ49tpm0BsMFz7HI8Q34YArpdq4fmrG4s9BYKEeU4MC1fIdQgq7drnRVdG8OCKFFsVTKuM7L1dii2Fzek0eyMwuNe1UZlOrpUiXZ1oQVrXUj4o2ItUedaq2lUlrrKOamkgoAgBFqt/6kTAmpwtX4kmvj0+P5wKO5jMPF/fSD1AQj4wxsft+jWLQzvBDCwKUQgkbElyoxgqCQcfOhEyfil+/PT4yEwx1xcwjh179y/jc+vZbiHBsM6hFr/+65UClXvkshhBnfrkWp+a/nVpobZp/W+BB61te/cuH0sfzm1/ThU4P/4veeeOzMYNfzF04UA4/+z3/2qzevLv7/P75+Y6ZCMDQGktK6VEsgBFemyw8ysKRcT32XHh/NzC413ri84NnkxFh3KKwXE6OZZy6OXDxZ7HoeI0gI2ml8CUAAPYdcn6ksrDQLGRsh6DqEEnxtpowR3Ib/AABBEKz26C6XY0qQ8V+fuThCCfrx+i6/NsyElW01NAupqo2UEHR1umwOgmqDvfTGnfdvrtQjDlf1AwDAtYlJmZvd7I5NAQCUolPjuS89M0Ex8m2itL6fvaQoQfnQqUepuHeVuNKgFjHbwiZ+BQBwLIwxasR8sRwPFzxCUD60MUZXp8vPPjq2+f84MuDHiaitHiJcqJQLcz2zvmVKXKtN9r99642X3uwu3AY7mydw8WQx9Lrv96mjuX/01YsTo5l/++23r06Xf/dLZ48MBrdmqwCAJJW1iD18qsiFfBAH0UwuOjoU1CP++pXFM8dybk9NRC9Cz/qj336kmOv2ixCCGEEm5A5UltKaEHhsOJyeq82XItOHZFPs2nhuuWFKQbf+aSZTIVb1g+9SiyAAwGDO+7XHj/7y/fkNx1uZ3+K2+MC4WqnF5yYKEIJrt8tS6Xc+XPrzH135xnfeefnSXbSqHwAAjk2Mr5xySQnECAIAEITPP370c0+NY4wwRjbFm9lLSgupCUGFjC0V2CRFrbVuRMyx1nwAxyKORaoNtliKxooBACCfcTKBpYH+5MXRzf9H3yGEoLZ+MA0bhg+ZwDapupVKHCW8VN3AitvN/aLHRjL/6KsX//CrF//hVy585rEjxZx7824NABAlvNZgz1wYyYXOpetLO/584xiNDQa2he8s1h9wjTnG0BQO7cCAM6NOTx7NVpvpzHzdkA1CmAscIXXoUbKpV9MFgpFWwFRDLleSQui0reEvf3qy2kjfvLpBqZVhwrbaErmQpWpy8cTAsZHMS2/eqTfZL96bf/T04KcfGfvZ27Nd+iFZ9adtStqRCAihkQ0j6FhkEzZKraVUlKB8xtFab1JrrTWoNZlj4Q424kLGXq7EdxcbptQ69Ggh44wPhcdG7unfGphTqbI6EKxUS81eMgBALrDqTa6UXqklSSo3HN+/y/t2A8/69MNjF04MWBSPFn3T9BglIkrFaNG/MFl458PlHbsQlUYa+tZQ3suHttbgsTND93/PvYERcm0Sp/K+1Wa90BoopU8cyTkWaSZrfduZwEIQmlD31j/NcwghaG6lKaVaqca5joLwwbx78cTApWvLvYkkc35vq8GfCdVMRCHnXjwx8Oq7s7fna7cXap96ePTvf/b0P/vdx//OE0fbYRLXIq38A5MWxb3/DkLQsnDUUzvThu6IL5lf/D1fqXUj4nYnHyxSyDi352uVRnpk0Ddf93c/efyffO0RjO7zi7Uozvp2pd6y0BYrkeeQln7wbS5VymW5liRMbDgBY/f3TyMETTjMVBwIqaKUm8Huj58dWliJ7huNvhcq9STjWZSgE0eyk2OZ3oLWbQEj6NkkTjdLKt0LSmup9MiAZzRDcbVvOxfYEILOttWtoJBxTh7NvnVlIUrFSi3pbJCgBD376JHp+Q32vJizefMGf9OcJKQy7+VcpUyEHn34ZLHW5P/+e++ND4UPTQ7YFv7Uw6Nf/8qFdrDOdbD5fMaFRVEvuRGC9qbt1FIDpTTGKB+6GujN+ABAM+GuQ9rfTgnKBvbUfK0Z89HBAAAAITw1nrtwotsJ7IVF8WDeXanFRr/dvFPN+JZx5zKBrZSOEl6qJfeaCLOH+9iPDAZSgdnlRjMWpqf04skBodSHd3YyY0cpXY9ak4teeHbyf/yDTzygeBhB1yFxKnawMlhKpbSmBJ89licYtvVDNrAhhIVt8oESfG6icGepMbNQZ0x26gcI4VjRH8y5t2arXS5p1PIfNguoNxP+qw/mf/DzW8Y2SLlkXIWudeJoNuNbK9XkmYsjG7o6rk1M/iFhyqYY9BACI+g7NE7u2U5ttC5C0HMIwWhz/RCnwu0oB4YQZn07TgUTqrPKZiuwCCrm3FI1SVKhlL55t3p8tNW/kPUtpXW9ySr1lAu14ZqBLdVg7gxHhgKE4M07VSGV71DHIgNZZzDnXr9dfubCyHY/rREzIVWL6L6d8e37vmVzIAQ9m8yXoh3oh5RJjBEl6IlzQ9dnKm1NlQt3wgcAwNmJfMa3//LlmxDBLvXiu3S0GCyWY8ZlewoyWGXCJrOQb96t/uef33r3+jIT8vyJgdCzStWYEhT6lkXwC89OLqw07+WDGUtSa50ycS97KfStKBVMSEI2OFUNHzCEJjmzKR9Akgp/fWgkE1iBa8WpGNjmxUQI5gInSkScirnlRq3JTh3NmT9lQ0spvVCOq01mUxzts37IhXbGt0z5Vz5jOxaGEJ6dyN9eqO8g6l9pMAhgb1xrx8AYujaJE7ED/yFOBcGQYnR8NPOHv3WxHV3NhzaCwHThbQv50HlosnDp+hKCIBese7tt4XzGXqkmXRfNWEr38miVUt/4zjtzS42vfe70WDEwle3zpch3qZnu8cKzk7/36+fudT0di5hIq9lIvYG9BGHo0TgRRqpXLt2dmlun9tv6AQCQDzfng46Z6AoVZnwrcGkx626eb+0FhDD0qZAqTuXb15Y8hxxf7V/I+rbSeqkc1ZpsbNDfcG3fHvIBIzQxkrlxt7JYjgoZx7EJAODoUNiM+Q6GW9YaKYQg428jjrk5EISOTZLtDFBpI2aSYEQIwhgNF9b6tseHw69/5XxvruP+wiD4iYdGEIKmRr1Lzqxvt4d3rMmw6k9vaMHPr0RXpkpf/vTk808cHR8KTHPswkrkOdQk+7KB3ZnY6oJrEy6UGRDm2rQ3OmCaIuNUMK6kVH/2/fffuLKu+MC0sxk+5EKndu/eZa1BnMqudvOMbwUeHczfs3poE4SeBSGsR+yNKwsTI2Gb84FHAQCL5YhxOVYMNiy+2kM+AAAmj2Sm7tZKlTQX2iYEGfoWF2vj6Mzooa1EnMr1FEIYPrCZ1IZJDAupdrCErzWqqOfosih+4dkTG1ae3xenxnPjw2Hg0q5GIghhxreSVHTpBxNplVJvmFK8MlUCEFw8WbQtfHji2CEAABPzSURBVGQ4uHmnqrVeqkRZ3+os1L8XHJsoDRoxa63K7nEgEIKBS6OUMyHvLNbLtbTLPW3pB2j4YNeie5ZaxQk3eyc6n8x4Vi6wR+/N2E0QeDT06dRs7f2bpfMnBtqnFUbIc8hSOcYI5kM7SoXqufV7y4eTR7KNhM+tNNoWRehSIVWyemuvTpf+3bff3so6lWo96Zrk9eCwCBJS7cB/iFJuRhXtojAIwX/wdx/63S+d7TXWM74lZPd6zzgVFkFS6t5Zl1rr92+VToxljKqZGMmsVOOValyqJgO5LZnjro0Zly++NjOz0DhxJIt6IkwQQscmSgHG1Qe3SkrpruO2Uz+MDHgm5r7hd5VqKSWoSz9Qin/7s6e+9vnTW5G2C6Fn5QL7p2/dSYV85NQ6XR241kIpsgjKZxygQdwTndtj/TCW1RoACNvub+BZXKj2eJWZxfrUXG0rEdhKg/nu9vJc9wWlWEi9Az4Y/2FDP/JBcOHEwBc/MdH7fOhbrkMWy2ulSlrrhIlizt1wNnjCxK3Z6hOrvvL4UOjY5M2rS+VGukVf37VJI2IvvXnnC08fe+zMYC8fwGp7EBPy6nRZa9BVidPpP4wM+IzLDXsPlNavvjfru7TLSgQATIxkhgs70Q82xbnQubPUKIT2aHFdeMqzydxKM/CsfGgDCHvt9r3lQzHn+i7x7LUeI99Zpx/qEWdcbcWdqDTSfLjVprMtwpyvO/Cnk3vYS3uEjGcFLp1bWauWl1IzroYLnlw/69JgdqlZa7LHz7bylbnQHhnwXnztNhdqi3wo5tx8xvnN5058/unxe5l/ZrxAlAgzWKDLs1+1lwAAYHTAT7nccNzLpWtLL74289knj+4gKHcvQAgHso5N8aNnBrsOUN+ljYgXMo5pnOwNue7tHSUYHR0MPGeND5QihGDbFK43GeNyK0UHlUbae4Q8ICjZqf+w6k/vrjz3gu/SwKXzy2tT6xiXSumhgiel7g3WTc/XANBnV0szEYLnJgpXpsuUoC3+7CbHsv/rH3/mC584tokvRCkGAMws1GtNNj4cMLHuSnbaS/mMrZXubb2q1JM/+/77Z47lv/D0se3GkTbHQNZ1bNIbTQ59auTJBTYEIIq7f3h7fkfPnxgYynvBqt2PILQIauvWepOlW+RDfau6fuuwKNIApNtvgYgSTnCrym0fgBAs5tyljmVQCZdK65EBX6ruWflmvt34UKZzeufFkwOmAa2Q3VLEhmBUzHnWpp63aRm+MlUSUj16ZlBI1dlMIjvsJYJR4Fn19SVMXMi/+MmNlMk//p3HOmdT7ApOj+d+/ZMTj/dUYWd927VxLnACj0IIe/XDHubjDL72uTNmXYV5iBCkZG08Yz0y+uE+9pJSut5ku64fLIIsgppbGNvWhZRJx94gS7V3GMi6K9VZrbX50pRJpfRwwe21l+oRn11pnhpfVwl/4kjOtXHoUX8LFcFbhNkafGW6NJjzhvLu9FyNC9kOjnXGlxCCoUe79MPMQuP9Wyv/4DceygS7fFsBAIWM87tfPNv7fMa3AtfK+JaRc7/9ByNB5yQYBAElqH0L6zFnQt13Vr5J3ec3bQ3dASjFlOL7zuTpRcLE5mfnrqOYc+JUtEsyGZdK60LGARp02UtL5ahSS85OrOuUcm3yxWcmnnpoeBc5TClyHbJcSU6N5zyHCrluAJexl9qF4qbWuu2qaa1nlxtS6Yc27T/bdYS+5bs09C3HJhCCZo9hsuf6oQsQwnV8aDKzbUhITck9b1UjYkrp/PbzvpvDItgiqL79TV+m6nN3hdkcA1mXYHR3sXHueAEYe0npwKWUoi79sFiONAC902z/m8+dRrscjWjNXDs3kfdsIqVqD+Ay9fAQtuwlU8NifEWTlhVS3V1sDOVcZ2tT23YLwwVvKO8OZB2LIEpQb8nGfvMBIUgJapu8ZvF9M+ZdxTldqEdMKpXfdX+aIovi+05T7EXC5FayWruIYs61KL49XzN8SFmrrZmSdbtApVR3Fhq5wPZ7qvRyu61dLYo8h0IIzkzkS9WkSz8IqTBCLXsJgsGse+V2KWbCEKDWZLdmayeP5hxrXy/jhRMDZ47lzdhm36HNnpTIPkVI1r4PQsfCxvzVWiepGCp4UU/ytQv1iCsFdt1eMofEhn0hBibM35vY3397KXBpxqMzqwNKUia11r5D7fX6oRHz63cq544XttWgtzMQjDybjA+HoWf5LhEd+gEAwIXCuFX5jxAcyDn1iJuaK611rclWavH4cLi7CaX7AiPkWK09b75LDoB+gMC1acqlVEpIrTQYKfhRcp/dEY2YA6B33fEiGNkUb1gHb+7Z1FztrWtLQOs/eOF8p+Wd7rt+gBCOFP2Z1fFkhgO2hS2KOy9dtZGuVOIvPXNsd3Pn9xLp1NGc5xDXJq5NpVobaK01EFJhjNoWWuhZaSraLfwLpQgCONjTxLuf8FyrN7C57/4Dgp5Dmgk3c2cJhkMF9/Z8Pd20r78Rccci1m7fYwiha5MN+2irjfT//dtrV2+XtQYzC/Xf+cKZzkh8ysQ+8wEAMFr037uxopQ2CRxTht1lL924U/FdOlYM9if29fi5ocf1EITtXPXaTeRCkVX9ACF0LKJXa3KF1Feny0N5d7BnJPt+InDIfufjeoEgdG1qplxVGylCsJBxldZs07kb9YhlfLoX99h1yIZNj69dXrgyXf77nz39+19+SAMw3TEJXCm9//40AOBIMahHzEyYM23NAIAue+mX788fH83s2+8MQWhqchFCFCO2ttVFc6EwQu1CD7tjZriU6trt0rGRMNjVarTtwnfpAeADgqvj6HQ9Ymi1vLm36KCNKOFzy81g9zofOuHZpLelRin9/ZdvXjgx8IkLI+cnByyCbt5dGwvCuNQa2NZ+X7qhvGd64QEACZeOhQAAFsXtAuEo4Vdvl89M5MnWRovvIhAEuHOYlV6nH8DqNMRmzLXW9YgtluPjo9ndjXdtF75Le/PTfYi3ug5JmZRK1ZoMIWiiRhv6D1yo7/7kxouv327E/DefO7EX8rg26aq71Fr/9a+mYyaff+IowQhgMDmWuTlba+fC4lRACPZfP+SzttLArCdkqwrKsTAXSipNMPzZpVmbkjPj+f1MFBpACClGa/HW9fElAIBNUeBZ5Xoqlf7VBwuBa030TIjbZ/iuFadcKQ0heOmNmeGif/74QD/8acusXdK1BkMQZkMbQmgOOa0BE9JebVBcKkff/9nN5584+tknj44P78nlMy3U5nzVACily7Xk//nrq889OnZide7/2WOFd28uC6lMG26UctM7sRfybIKsbyPY4kPKW7O4XZvWIsaFwgi++PrtybFMcUc9NA8IBAEhqHOBoIkvtaNHFsWhZ5VqSSPiP3p16vyJgf460wCAwCFSAcYlRPAHr04/eW6oD3yAEFoUmeUxtSazLRy6lk1xI2JKg6Vy9Ne/mP7iM8dMme67N5ZHi/5v/drJXa9casOzqZAq5TJJxQ9enSrX0sVyJJX+zedOtM+2hyYLP3tndrkSG6miWMCO0V37BovijE/N7PiUSVPz4zpkpRoLoRpCXZkq/5OvPdoXI8SkWTvtJSEVwR3+A8UZ3yrVklcu3V2sxP/8mYkNa8j3E75LzSgDpTTj0uyX2m8jGABACNIACKVba7Qt7Dm0HnGl1Ps3Vv72tdvXbreM9UvXl0cKXnYP6lvacG2CIKw32VvXll56407K5cRo5n/47x7vrDE5M55LuTSbiEFr/xLcfz4AAAoZd00/UAwAcC3ChOJSLZQjqfT40PamUewWEIQEo3Z8SbfzD6vkNCVMy5X4L1+++eS5oYn7jRXbB/guVVonTNZjxrg0vRb7rR8AAKZtQEpVa6ahZ1kEeQ6pNVOl9Hu3liv19PZ8TUiFIHzvxvLXPnd6T8tIPYdgjKoN9te/mH7szOA//M0LGCGMYacJngns0LNml5tm50rcJ3sJADCQdSuN1KzqMxsPXBtzoYRQCytNAMDIjhosHxwQAjMcetXL0kIoi64tzYEQhp41PV+rNti//P2ndre6e2cIXKoVMIPJmJBmXU4/9ANGAAAhdb3JQ5daFvYcUmtyE5bOBvbMYr1cS27P16JEnDiS21NhzKKjVy7dXShFzz465liEEtRlckAIxwb92eVGK4wT98efBgAMZJ1qPeVcitUNgq5DuZBcqvmVyLHwnurSTQARbHv2AADdii+tu5KBb1GCnzw3NLnH93SLaOmHVNQj5ljE2J994INJnUqpqs009G2Kke/QRsQWSs1KPX3+iaOlarpciS99uOTauGvZ6a7DdQhG8Puv3HposnD++MC9XjY5ll2qxKZiuWUv7W/hjcFg3k2YrDbTNT7YmAvFhZpdbhwbyfTLKDfDStpbjgAAXK7LPwAAhvPu6fHc33v+VF8k7MWq/yDrTRb6VmsX8/7LsaofVK3JQp+a9dUJk+/eWLEofvqhIdcms8vNS9eWTxzJ9m413124NjFTvn/jU8c36Xc7MZap1lPT5x0lAiO4b82inShmXSZUpZ4K0eKDTYmUWgi5UIqODffNKIcQOBZmQprhPRoAqRRZb3YeGQr/+18/d35yXwu8N4HvUKVBwoSZ+4j6xgeCCEb1iKdcmtk4nkNTLt65vjRa9E+O58YG/TeuLFybKT96enCvQ+k2xZ5DHz8z1NUw0IWhvCekMnyIE25buC8ncTHncCHLtaS9cRljCCGoR7zaYOObrtLbU5gyTc5Va/jn6vDWztfYFE+MZvpiZ24I28IYwUbM6xEzg3dBX/xpgpFN0XIlUkqb+TGeQ6JETM3WXnhu0nfosZHMn//oSq3Jereu7DoghH/83z4WetbmBXCuQz2blqoxACBKu4fJ7RuKWZdxVaqv2UsYIQjhUjlOuRzvp36Ajk2YkKLVQq2l1PvWT7szQAgdG1fqaSPmgzm31dq6/3JQgmwLL5RipXWHfpDNRDxyahBCeHw0kw0sBMHE6P3X/zw4NlmZ14Zj4VxoL1cTIVSUcHe3+323CNehlKByLRFCGU5iDBECcytNzuXEaN/4gCBwLMK4MlvwtFkZcwCCSJvDtUilntab7NxEwdhL/dIPeKkSKQVW+UDMgnczenZ8KBgrBv44PTgHjEXxUMFbrsQxE1Ei99qruRdMF0tlnX6AEMLFUoTQ2pjxvgjmWJjxVf2ggVQK73sZ1Xbh2qTSSJoJL2T6aS9By8LT83Wttdk76DnUovj4WMZ0dYW+9VvPn/R3NPVxj2BRNJR3p+drcSKilA97/SlURhB4LinVU6V0e/chgnChFOVD5767QvYOEALbwlyqDn/6oNtLwPChniqt3dUfW3/irQ7FS5U1eylwqU3xwydb4U4I4cMni+3yoYMABGEubE1Rj/vnP0AEfYeWawmE0HirJnW4UI4K2b0qadmSYBASjEwbkHlGqY+CvWSTSiMFALRL5vpkL1mkUk8phkbpZwP7j3774aF+FKJtEWaosBAySkWcCG9/u+DbQBBkA/va7XLg0pb/hyCEoFJP+14eRzCCALSGpW8UXzqA8GxSrqUZ325nk/pwXyGENsV4/ZLmYyN9rv69LzK+RSkuVeNGzB27P7YchK3dIvaqb4Vwq5LKlKP1EZ1bUjXQUmly4O0lxyGNmFOC2qt++8Ngy8IYw70YRLV3CH0rF9jT8/WUSc/pTxDdbIdImNSro+/M7nQAwCbLHPYHBJsyzTV76eD706YHOPSomUUL+sUHm2KCUGZvWt72CIFL86F9a7YqlXL6FG9FEJh2QptitLr31qaIErTdvVK7DtIq02zVL0ml++jfbxEmThh4azsx+sQHC2OMMv5HiQ8YwWLOvT1fl0r3K94KAAhcSgkyBicAAGNkWyQf2v2iaBt4tQzHPDQte32V6P5o7eH1qNVfPjgUEwyzwUeJDxDCYs6LU6E1cPvnP1gU+w5tF4xgBG2KB7IupX0+jI23IORap+HB96d9m1gUBZ7drr7pk/9AMca7uRxxfzCYc9pVpf2SwSIo8GjbXiIYhh4dG/T70p/UCYIRRpBzqbUWQsLV4a0HGZ5LHYt0Lp3qj5K1LUzQR8xeAgAUc67JPLh9ircCACjFgWdZq/qBYPTkQ8MXTxZ7B1TuMzCGFkUJl0oDxhVC8ODnHzyHOBbuHN3SJz5Q4z98lOJLAIB8aJsYQB/5YBEUemv2EoRwcuxAJC4JRhbBSSq01imXCMGDH18qhM4jp4qjHaHq/tzXwKU2RTvbptpHYIyGBzwEYT/1A8Emnd/f4UW9wBhSihMmlNZMSLSaQT/IKObc33/hfNh3/TA84P/rP/p0+FGzlyCERwYDhPrJB88hx4ZDxyJWvx3oLhCMLIqSVGoFGJMIQXLg460Yo64h2X27r/3q9H1AfOaxIwNZt48nn0Xx1z5/pl/fvgkIam1C00Y/fBTspV4cdAYfNAxk3c88dqTfUhxEYOM/MKG0TplCEB78eo1eHPLhELsDgpHxH8yQRYQ+Av5DLz56Eh/iYMJMvWdcKa1NvPXQXjrExxcQQotgIZTWOuUCQXDw8w+9+OhJfIgDC4tiLpXSgDGFETr4+eleHPLhELsGzyHNmDMmGZdmI0S/Jdo2PnoSH+LA4thwqAG4MlVi3OQfDvXDIT7GODYSTo5m/uZXt1OhEEZ9n2i/Axzy4RC7Bkrwpx8Zu3G3cnWqRNcPq/yo4JAPh9hNPHxyYLTofzBVIvigzKXcFg75cIjdhG2Rzz99DEKwDwuw9wIfSaEPcZDx7CNj+dDe9WXh+wNodnwc4hC7Ba3129eXPJtsPjL9YOKQD4c4xBo+kkrtEIfYIxzy4RCHWMN/AXvQGdWy8p/9AAAAAElFTkSuQmCC;imageBorder=default;strokeWidth=0.25;" vertex="1" parent="1">
          <mxGeometry x="40" y="80" width="210" height="140" as="geometry" />
        </mxCell>
      </root>
    </mxGraphModel>
  </diagram>
</mxfile>
